<?xml version="1.0" encoding="UTF-8" standalone="no"?>
<svg
   xmlns:dc="http://purl.org/dc/elements/1.1/"
   xmlns:cc="http://creativecommons.org/ns#"
   xmlns:rdf="http://www.w3.org/1999/02/22-rdf-syntax-ns#"
   xmlns:svg="http://www.w3.org/2000/svg"
   xmlns="http://www.w3.org/2000/svg"
   viewBox="180 120 1080 1200"
   height="1200"
   width="1080"
   xml:space="preserve"
   id="svg2"
   version="1.1"><metadata
     id="metadata8"><rdf:RDF><cc:Work
         rdf:about=""><dc:format>image/svg+xml</dc:format><dc:type
           rdf:resource="http://purl.org/dc/dcmitype/StillImage" /></cc:Work></rdf:RDF></metadata><defs
     id="defs6"><clipPath
       id="clipPath18"
       clipPathUnits="userSpaceOnUse"><path
         id="path16"
         d="M 0,1080 H 1080 V 0 H 0 Z" /></clipPath><linearGradient
       id="linearGradient34"
       spreadMethod="pad"
       gradientTransform="matrix(813.75,0,0,813.75,-864.375,1079.9997)"
       gradientUnits="userSpaceOnUse"
       y2="0"
       x2="1"
       y1="0"
       x1="0"><stop
         id="stop26"
         offset="0"
         style="stop-opacity:1;stop-color:#28f4af" /><stop
         id="stop28"
         offset="0.0682429"
         style="stop-opacity:1;stop-color:#28f4af" /><stop
         id="stop30"
         offset="0.908857"
         style="stop-opacity:1;stop-color:#00caff" /><stop
         id="stop32"
         offset="1"
         style="stop-opacity:1;stop-color:#00caff" /></linearGradient><clipPath
       id="clipPath44"
       clipPathUnits="userSpaceOnUse"><path
         id="path42"
         d="m 391.312,788.138 h 296.67 V 246.686 h -296.67 z" /></clipPath></defs><g
     transform="matrix(1.3333333,0,0,-1.3333333,0,1440)"
     id="g10"><g
       id="g12"><g
         clip-path="url(#clipPath18)"
         id="g14"><g
           transform="translate(997.147,517.4117)"
           id="g20"><path
             id="path22"
             style="fill:#000000;fill-opacity:1;fill-rule:nonzero;stroke:none"
             d="m 0,0 c 0,-252.67 -204.83,-457.5 -457.5,-457.5 -252.67,0 -457.5,204.83 -457.5,457.5 0,252.67 204.83,457.5 457.5,457.5 C -204.83,457.5 0,252.67 0,0" /></g><g
           transform="translate(937.522,517.4117)"
           id="g24"><path
             id="path36"
             style="fill:none;stroke:url(#linearGradient34);stroke-width:18;stroke-linecap:butt;stroke-linejoin:miter;stroke-miterlimit:10;stroke-dasharray:none;stroke-opacity:1"
             d="m 0,0 c 0,-219.74 -178.135,-397.875 -397.875,-397.875 -219.74,0 -397.875,178.135 -397.875,397.875 0,219.74 178.135,397.875 397.875,397.875 C -178.135,397.875 0,219.74 0,0 Z" /></g><g
           id="g38"><g
             id="g40" /><g
             id="g56"><g
               style="opacity:0.52999902"
               id="g54"
               clip-path="url(#clipPath44)"><g
                 id="g48"
                 transform="translate(413.8695,609.8182)"><path
                   id="path46"
                   style="fill:#215140;fill-opacity:1;fill-rule:nonzero;stroke:none"
                   d="m 0,0 c -7.604,4.707 -7.862,15.676 -0.488,20.736 l 225.916,155.01 c 7.557,4.065 16.823,3.26 23.488,-2.029 6.442,-5.113 9.373,-13.558 7.506,-21.633 L 137.529,-75.891 c -1.969,-3.776 -6.733,-5.084 -10.354,-2.842 z" /></g><g
                 id="g52"
                 transform="translate(553.3604,524.9776)"><path
                   id="path50"
                   style="fill:#215140;fill-opacity:1;fill-rule:nonzero;stroke:none"
                   d="m 0,0 c -3.406,2.019 -7.802,0.946 -9.895,-2.415 l -149.423,-239.96 c -5.291,-10.653 -2.668,-23.36 5.928,-30.478 7.181,-5.945 17.474,-7.115 26.292,-3.022 0.419,0.195 0.82,0.434 1.2,0.696 l 254.264,175.228 c 8.69,5.989 8.247,18.968 -0.832,24.35 z" /></g></g></g></g><g
           transform="translate(342.0871,432.6223)"
           id="g58"><path
             id="path60"
             style="fill:#ffffff;fill-opacity:1;fill-rule:nonzero;stroke:none"
             d="m 0,0 v 131.545 h -52.085 v 38.034 H 99.809 V 131.545 H 47.966 L 47.966,0 Z" /></g><g
           transform="translate(541.9478,429.2307)"
           id="g62"><path
             id="path64"
             style="fill:#ffffff;fill-opacity:1;fill-rule:nonzero;stroke:none"
             d="m 0,0 c -13.407,0 -25.8,2.142 -37.186,6.42 -11.386,4.277 -21.239,10.375 -29.555,18.29 -8.32,7.911 -14.82,17.238 -19.502,27.981 -4.686,10.738 -7.025,22.567 -7.025,35.49 0,12.919 2.339,24.748 7.025,35.49 4.682,10.739 11.182,20.066 19.502,27.981 8.316,7.911 18.169,14.009 29.555,18.29 11.386,4.278 23.779,6.42 37.186,6.42 15.663,0 29.676,-2.748 42.031,-8.237 12.355,-5.492 22.651,-13.407 30.888,-23.741 L 42.395,116.767 c -5.493,6.458 -11.507,11.386 -18.048,14.778 -6.541,3.391 -13.851,5.087 -21.924,5.087 -6.946,0 -13.324,-1.132 -19.139,-3.391 -5.814,-2.264 -10.78,-5.534 -14.898,-9.812 -4.119,-4.281 -7.351,-9.41 -9.691,-15.383 -2.343,-5.977 -3.512,-12.597 -3.512,-19.865 0,-7.268 1.169,-13.892 3.512,-19.865 2.34,-5.977 5.572,-11.106 9.691,-15.383 4.118,-4.281 9.084,-7.552 14.898,-9.812 5.815,-2.263 12.193,-3.391 19.139,-3.391 8.073,0 15.383,1.696 21.924,5.087 6.541,3.392 12.555,8.316 18.048,14.778 L 72.919,31.978 C 64.682,21.803 54.386,13.93 42.031,8.358 29.676,2.786 15.663,0 0,0" /></g><g
           transform="translate(676.401,432.6223)"
           id="g66"><path
             id="path68"
             style="fill:#ffffff;fill-opacity:1;fill-rule:nonzero;stroke:none"
             d="m 0,0 v 71.708 l 11.144,-28.829 -75.826,126.7 h 50.631 L 40.699,77.764 H 11.386 l 54.992,91.815 h 46.513 L 37.307,42.879 47.967,71.708 V 0 Z" /></g></g></g></g></svg>