<svg width="781" height="234" viewBox="0 0 781 234" fill="none" xmlns="http://www.w3.org/2000/svg">
<path d="M176.743 26H63.5718C45.1153 26 30.1565 41.0418 30.1565 59.6007V173.399C30.1565 191.958 45.1153 207 63.5718 207H176.743C195.199 207 210.158 191.958 210.158 173.399V59.6007C210.158 41.0418 195.199 26 176.743 26Z" fill="#F0C43F"/>
<path d="M496.663 69.5436H484.879V161.295H496.663V69.5436Z" fill="black"/>
<path d="M528.413 69.5436H516.629V161.295H528.413V69.5436Z" fill="black"/>
<path d="M600.188 69.5436H588.404V161.295H600.188V69.5436Z" fill="black"/>
<path d="M421.552 67.5388C395.305 67.5388 373.869 88.9948 373.869 115.486C373.869 141.977 395.299 163.236 421.552 163.236C447.805 163.236 469.137 141.879 469.137 115.486C469.137 89.0933 447.799 67.5388 421.552 67.5388ZM421.564 150.657C402.128 150.657 386.368 134.85 386.368 115.509C386.368 96.1681 402.128 80.1181 421.564 80.1181C441 80.1181 456.639 95.9653 456.639 115.509C456.639 135.053 440.919 150.657 421.564 150.657Z" fill="black"/>
<path d="M532.032 69.5842L593.095 150.941V161.255H584.768L523.175 79.8284L526.396 69.5842H532.032Z" fill="black"/>
<path d="M349.76 130.058C344.228 142.186 332.018 150.657 317.849 150.657C298.413 150.657 282.653 134.85 282.653 115.509C282.653 96.1681 298.413 80.1181 317.849 80.1181C331.972 80.1181 344.154 88.5603 349.708 100.717H363.106C356.917 81.4623 338.973 67.5388 317.832 67.5388C291.584 67.5388 270.149 88.9948 270.149 115.486C270.149 141.977 291.579 163.236 317.832 163.236C339.025 163.236 357.003 149.313 363.152 130.058H349.76Z" fill="black"/>
<path d="M649.138 67.5388C632.232 67.5388 618.426 81.358 618.426 98.422C618.426 115.486 632.232 129.178 649.138 129.178C666.045 129.178 679.788 115.422 679.788 98.422C679.788 81.4218 666.045 67.5388 649.138 67.5388ZM649.138 116.535C639.123 116.535 631.004 108.388 631.004 98.422C631.004 88.456 639.123 80.1876 649.138 80.1876C659.153 80.1876 667.215 88.3517 667.215 98.422C667.215 108.492 659.113 116.535 649.138 116.535Z" fill="black"/>
<path d="M653.84 161.295H640.875L663.423 112.508H676.388L653.84 161.295Z" fill="black"/>
<path d="M736.903 109.24C741.588 104.819 744.481 98.7349 744.481 92.0194C744.481 78.4957 733.936 67.5388 719.472 67.5388C705.009 67.5388 694.464 78.5015 694.464 92.0194C694.464 98.7407 697.363 104.83 702.059 109.257C694.724 114.773 688.794 123.459 688.794 133.234C688.794 149.852 702.601 163.294 719.507 163.294C736.413 163.294 750.157 149.852 750.157 133.234C750.157 123.442 744.239 114.75 736.909 109.24H736.903ZM719.507 150.657C709.486 150.657 701.362 142.447 701.362 132.394C701.362 122.341 709.486 114.003 719.507 114.003C729.528 114.003 737.589 122.236 737.589 132.394C737.589 142.551 729.487 150.657 719.507 150.657ZM732.414 92.6394C732.414 99.8242 726.623 105.653 719.472 105.653C712.322 105.653 706.53 99.83 706.53 92.6394C706.53 85.4488 712.322 79.6256 719.472 79.6256C726.623 79.6256 732.414 85.4488 732.414 92.6394Z" fill="black"/>
<path d="M177.746 95.496V95.5075C177.746 95.7625 177.746 96.0116 177.735 96.2782C177.723 96.7127 177.7 97.1531 177.66 97.5935C177.62 98.057 177.568 98.5205 177.51 98.9783C177.332 100.34 177.043 101.678 176.652 102.988C176.519 103.434 176.375 103.88 176.214 104.315C172.975 101.58 169.264 99.3839 165.231 97.8716C165.369 97.1067 165.438 96.3187 165.438 95.5133C165.438 94.5747 165.34 93.6708 165.162 92.7843C165.121 92.5699 165.069 92.3497 165.012 92.1353C164.902 91.7065 164.776 91.2893 164.626 90.8838C164.476 90.4724 164.303 90.0668 164.113 89.667C163.087 87.5115 161.497 85.6747 159.532 84.3421C158.293 83.4961 156.893 82.8587 155.395 82.4705C155.181 82.4126 154.962 82.3604 154.749 82.3199C153.885 82.1403 152.98 82.0476 152.053 82.0476C151.603 82.0476 151.154 82.0707 150.716 82.1171C143.951 82.7892 138.667 88.5255 138.667 95.5133C138.667 96.3477 138.742 97.1647 138.892 97.9527C134.881 99.4824 131.187 101.684 127.972 104.431C127.217 102.385 126.716 100.253 126.497 98.0744C126.497 98.0106 126.485 97.9469 126.48 97.8774C126.434 97.3791 126.399 96.8808 126.382 96.3883C126.382 96.3535 126.382 96.3129 126.382 96.2782C126.382 96.0174 126.37 95.7625 126.37 95.5075V95.496C126.37 94.5573 126.416 93.6302 126.52 92.7147C126.555 92.3902 126.595 92.0716 126.635 91.7413C126.86 90.1884 127.223 88.6762 127.718 87.2218C127.834 86.8684 127.961 86.5149 128.099 86.1672C128.502 85.1185 128.975 84.1045 129.505 83.1253C129.695 82.7718 129.897 82.4242 130.104 82.0823C130.317 81.7347 130.53 81.3986 130.755 81.0683C130.991 80.7265 131.233 80.3788 131.475 80.0485C131.729 79.7183 131.971 79.4054 132.23 79.0809C132.23 79.0809 132.242 79.0809 132.242 79.0693C132.616 78.6116 133.014 78.1654 133.417 77.7367C133.826 77.3079 134.247 76.8907 134.685 76.4909C135.117 76.0853 135.561 75.7029 136.028 75.3321C136.258 75.1524 136.494 74.967 136.736 74.7816C138.874 73.1882 141.266 71.9135 143.847 71.0385C144.25 70.9053 144.648 70.7778 145.057 70.6561C145.455 70.546 145.858 70.4417 146.261 70.3432C146.273 70.3432 146.284 70.3432 146.29 70.3432C147.327 70.1057 148.393 69.9318 149.465 69.8217C149.678 69.7986 149.897 69.7812 150.116 69.7638C150.762 69.7174 151.424 69.6885 152.087 69.6885C153.85 69.6885 155.579 69.8681 157.244 70.21C157.659 70.2969 158.068 70.3954 158.477 70.4997C158.887 70.604 159.284 70.7141 159.693 70.8473C160.293 71.0327 160.886 71.2471 161.468 71.4789C161.722 71.5774 161.969 71.6817 162.217 71.7918C162.482 71.9019 162.747 72.0235 163.001 72.1452C165.692 73.4258 168.123 75.164 170.198 77.2499C170.63 77.6845 171.056 78.1423 171.46 78.6116C171.592 78.768 171.731 78.9303 171.869 79.0925C172.094 79.3648 172.307 79.643 172.514 79.9211C173.298 80.9582 174.007 82.0534 174.629 83.2122C174.825 83.5772 175.021 83.9423 175.194 84.3131C175.194 84.3305 175.211 84.3421 175.211 84.3479C175.378 84.6839 175.534 85.0374 175.678 85.385C175.879 85.8544 176.07 86.3295 176.237 86.8162C176.294 86.9553 176.346 87.0943 176.387 87.2334C176.876 88.6877 177.245 90.1942 177.464 91.7529C177.504 92.0832 177.55 92.4018 177.579 92.7263C177.689 93.6418 177.735 94.5631 177.735 95.5075L177.746 95.496Z" fill="black"/>
<path d="M114.108 137.562C114.108 151.787 102.584 163.294 88.4948 163.294C74.4061 163.294 62.8412 151.787 62.8412 137.562H75.1206C75.1206 144.961 81.1191 151.01 88.4948 151.01C95.8705 151.01 101.771 144.961 101.771 137.562H114.108Z" fill="black"/>
<path d="M88.1894 69.6943C71.6575 69.6943 58.1565 83.2064 58.1565 99.8938C58.1565 116.581 71.6575 129.966 88.1894 129.966C104.721 129.966 118.159 116.517 118.159 99.8938C118.159 83.2701 104.721 69.6943 88.1894 69.6943ZM88.1894 117.601C78.3935 117.601 70.4589 109.64 70.4589 99.8938C70.4589 90.1479 78.3993 82.0649 88.1894 82.0649C97.9795 82.0649 105.862 90.0494 105.862 99.8938C105.862 109.738 97.9449 117.601 88.1894 117.601Z" fill="black"/>
<path d="M152.168 103.052C135.636 103.052 122.135 116.564 122.135 133.251C122.135 149.939 135.636 163.323 152.168 163.323C168.7 163.323 182.137 149.875 182.137 133.251C182.137 116.628 168.7 103.052 152.168 103.052ZM152.168 150.958C142.372 150.958 134.437 142.997 134.437 133.251C134.437 123.505 142.378 115.422 152.168 115.422C161.958 115.422 169.841 123.407 169.841 133.251C169.841 143.096 161.923 150.958 152.168 150.958Z" fill="black"/>
</svg>
