<svg xmlns="http://www.w3.org/2000/svg" xmlns:xlink="http://www.w3.org/1999/xlink" width="877.1" height="174.044" viewBox="0 0 877.1 174.044">
  <defs>
    <clipPath id="clip-path">
      <path id="Path_21" data-name="Path 21" d="M74.3-174.457c-19.4,3.1-36.7,12.4-50.9,27.4A83.121,83.121,0,0,0,0-88.357c0,23.2,7.9,43.5,23.4,59.7a87.82,87.82,0,0,0,42.4,25.5c11,3,31.5,2.9,42.7-.1,25.7-6.9,47.2-24.8,57.9-48.3l3.4-7.5,7.4-.6a54.767,54.767,0,0,0,11.3-1.9l4-1.3v-19l-5.5.4c-12.9.9-12.5,1-12.8-2.8-.2-1.8,0-3.7.5-4.2.4-.4,4.1-1.5,8.2-2.3,4-.9,7.9-2.1,8.7-2.7,1-.8,1.4-3.6,1.4-9.4,0-10-.8-11-7.2-9.6-2.3.5-6.5,1.2-9.1,1.5-5.4.6-4.7,1.4-9.1-10.5-2.2-6-7.9-15.5-13.6-22.5-10.3-12.7-29.9-24.8-46.5-28.9C99.4-174.757,81.9-175.657,74.3-174.457Zm30.7,23.7a68.423,68.423,0,0,1,26.8,15.8c7.1,6.7,14.9,17.7,13.8,19.5-.3.4-3.4.2-6.8-.7-6.9-1.7-29.7-2.3-36-.9-6,1.3-6.8,2.7-6.8,12.1,0,10.6.6,11.3,8.7,9.5,3.2-.7,11-1.2,17.3-1.2,9.4.1,13.2.6,20.5,2.8,4.9,1.4,9.3,3.2,9.7,3.8.6,1,.1,5.1-.8,6.9-.2.3-3.7-.2-7.6-1.3-16.1-4.1-36.7-4.4-44.6-.7-2.6,1.3-2.7,1.7-3,10-.4,11.5.1,12,10,10.1,14.2-2.8,39.8.1,39.8,4.5,0,3.1-7.8,13.8-15,20.5-12.5,11.9-31.3,18.7-48,17.4-9-.7-21.4-4.5-28.7-8.7-11.3-6.5-22.6-19.6-28-32.5-5.3-12.5-5.7-32-1-45.3,7.8-22.3,29-40,52.2-43.6C83.1-153.557,99.5-152.457,105-150.757Z" fill="none"/>
    </clipPath>
    <clipPath id="clip-path-2">
      <path id="Path_23" data-name="Path 23" d="M288.7-129.357a34.109,34.109,0,0,0-25.9,20.9c-1.9,4.8-2.2,7.5-2.3,19.6,0,12.3.3,14.7,2.3,19.7a35.151,35.151,0,0,0,17.4,18.4c5.8,2.6,7.2,2.8,17.8,2.8,13.3,0,19.7-1.9,26.8-7.9,13.5-11.6,16.2-43,5.3-59.6a32.768,32.768,0,0,0-16.5-12.3C307.7-129.757,295.3-130.557,288.7-129.357Zm17.6,14.4c4.1,1.7,9.1,7.3,10.8,12.3.9,2.3,1.4,8,1.4,14.4,0,9.8-.2,11-3,16.4-4.1,8-9.2,10.8-18.6,10.3-12.5-.7-18-7.9-18.7-24.9-.5-10.7,1.2-18.6,5-23.4C287.7-115.557,298.9-118.057,306.3-114.957Z" fill="none"/>
    </clipPath>
    <clipPath id="clip-path-3">
      <path id="Path_25" data-name="Path 25" d="M579.6-129.357a33.414,33.414,0,0,0-24.4,18.4c-5.7,12-5.5,34.4.4,45.7,6.3,12.2,20.7,18.9,37.7,17.6,22.8-1.7,34.7-16.2,34.7-42.1,0-19-9.1-33.8-23.5-38.2C598.2-129.857,586-130.557,579.6-129.357Zm19.5,15.3c3.4,1.8,5.1,3.6,7.4,8.2,2.8,5.5,3,6.6,3,16.9s-.2,11.5-3,17.1c-2.4,4.9-3.8,6.4-7.5,8.3-9,4.5-20.4,2-25.4-5.6-6.4-9.6-6.2-30.9.3-40C578.8-116.157,590.7-118.457,599.1-114.057Z" fill="none"/>
    </clipPath>
    <clipPath id="clip-path-4">
      <path id="Path_27" data-name="Path 27" d="M437.3-108.357c-9.1,1.9-16,7.9-19.4,16.9-1.7,4.6-2,7.2-1.7,15.1.3,8.2.8,10.2,3.3,14.9,7.3,13.4,24.6,17.6,44,10.8,7.5-2.6,7.4-2.5,4.9-9.3l-1.6-4.1-6.1,1.9c-9,2.8-19.7,2.2-23.3-1.3a20.827,20.827,0,0,1-3.9-6.5l-1.3-3.9,19.9-.3,19.9-.2v-6.3c0-12.6-5-22-13.7-25.9C453.3-108.757,443.2-109.657,437.3-108.357Zm13.6,12.5c2.5,1.3,3.6,3.1,5.5,8.7.5,1.7-.5,1.8-11.4,1.8-13.3,0-13.7-.2-9.7-6.1C439.1-97.157,445.1-98.857,450.9-95.857Z" fill="none"/>
    </clipPath>
    <clipPath id="clip-path-5">
      <path id="Path_29" data-name="Path 29" d="M518-108.757c-.8.1-3.2.5-5.2.9-2.1.3-5.8,2.1-8.3,4.1-4.7,3.5-4.8,3.5-5.9-1.9-.6-2.6-.8-2.7-7.6-2.7h-7v60h17v-41.6l3-2.9c2.4-2.3,4.1-3,8.8-3.3,4.9-.3,6-.1,7.7,1.8,1.8,2,2,3.9,2.3,24.1l.3,21.9H540v-21.8c0-11.9-.5-23.4-1-25.4-1.3-4.4-5.2-9.3-8.9-11.2C527.4-108.157,520.5-109.257,518-108.757Z" fill="none"/>
    </clipPath>
    <clipPath id="clip-path-6">
      <path id="Path_31" data-name="Path 31" d="M659.2-108.257c-7.1,1.2-12.3,4-16.5,9-4.8,5.5-6.7,11.6-6.7,21,0,20,9.8,30.2,29,30.3,8,.1,17.4-1.7,18.5-3.4.3-.5,0-3.1-.7-6-1.1-4.8-1.3-5.1-3.7-4.6-7.5,1.8-14.6,1.7-18.1-.2-4.8-2.6-8-9-8-16.2.1-14.2,9.7-21.2,22.8-16.6l4,1.4,2-5.1c1.8-4.8,1.9-5.3.4-6.5C678.5-108.057,667-109.657,659.2-108.257Z" fill="none"/>
    </clipPath>
    <clipPath id="clip-path-7">
      <path id="Path_33" data-name="Path 33" d="M713.5-108.757c-1.1.3-3.7,1-5.9,1.5-2.2.6-5.8,2.9-8.7,5.6-6.4,6-8.9,12.6-8.9,23.3,0,13.6,4.9,22.9,14.8,27.7,5,2.5,6.8,2.8,15.2,2.8,7.3,0,11.2-.6,16.8-2.4,4-1.3,7.4-2.6,7.6-3,.2-.3-.5-2.9-1.5-5.7l-2-5.2-6,1.9c-6.9,2.2-17.2,2.5-20.9.6-3.1-1.6-7-7.3-7-10.3v-2.4h39v-7.3c-.1-16.7-8.2-26.1-23.6-27.1C718.6-109.057,714.6-109.057,713.5-108.757Zm11.5,12.9c3.1,1.6,4.3,3.3,5.4,7.7l.6,2.8H719c-6.6,0-12-.2-12-.5,0-1.6,3-7.2,4.6-8.6A12.5,12.5,0,0,1,725-95.857Z" fill="none"/>
    </clipPath>
    <clipPath id="clip-path-8">
      <path id="Path_35" data-name="Path 35" d="M770.5-108.257c-9.4,1.8-14.7,4-14,5.6.3.9,1,3.5,1.6,5.8l1.1,4.3,4.1-1.5a58.468,58.468,0,0,1,11.7-2c7.1-.5,7.7-.4,10.8,2.2,2.2,1.8,3.2,3.6,3.2,5.5,0,2.8,0,2.8-8.7,3.5-10.6.9-16.3,2.5-20.8,6-4.7,3.5-6.8,7.9-6.8,14,0,9,4.6,14.4,14,16.6a23.685,23.685,0,0,0,18.7-3.1,34.013,34.013,0,0,1,5.1-3c.2,0,.6,1.3,1,3l.7,3H807v-17.8c0-9.7-.5-20.4-1-23.7-1.9-12-9.4-18.1-23-18.9A54.707,54.707,0,0,0,770.5-108.257Zm18.5,38.8c0,5.6-.2,6-3.2,7.9-7.2,4.3-14.6,3.5-16.8-1.8-2.7-6.4,3.9-12,14.3-12H789Z" fill="none"/>
    </clipPath>
    <clipPath id="clip-path-9">
      <path id="Path_37" data-name="Path 37" d="M854-108.657c-5.4.9-9.7,2.6-13.3,5.5-3.9,3-3.9,3-5.1-2.5-.6-2.6-.8-2.7-7.6-2.7h-7v60h17v-20.8c0-20.3.1-20.9,2.3-22.9,3.5-3.2,6.2-4.3,11-4.3,7.9,0,8.2.7,8.5,26.1l.3,21.9h17l-.3-23.8c-.3-21.7-.5-24-2.4-27.7C871.2-106.057,862.1-109.957,854-108.657Z" fill="none"/>
    </clipPath>
    <clipPath id="clip-path-10">
      <path id="Path_39" data-name="Path 39" d="M349.7-107.657c-.4.3-.7,19.7-.7,43v42.4l8.8-.3,8.7-.3.3-12.7.3-12.7,6.2.6c11.1,1,23.7-3.7,28.6-10.6,6.6-9.2,8.4-22.7,4.6-34-2.2-6.7-8.3-13.1-14.1-14.9-9-2.6-19.9-.9-25.1,4l-2.2,2-1.5-3.6c-1.5-3.6-1.6-3.6-7.4-3.6C353-108.357,350-108.057,349.7-107.657Zm35.2,12.8c3.9,2,6.1,7.9,6.1,16.3,0,12.5-5.7,19.2-16.2,19.2-8.1,0-7.8.6-7.8-15.7v-14.5l3.4-3.4c2.8-2.8,4.2-3.4,7.5-3.4A18.09,18.09,0,0,1,384.9-94.857Z" fill="none"/>
    </clipPath>
  </defs>
  <g id="Group_18" data-name="Group 18" transform="translate(0 175)">
    <g id="Group_8" data-name="Group 8" clip-path="url(#clip-path)">
      <path id="Path_20" data-name="Path 20" d="M-1,.843H194V-176H-1Z" fill="#fff"/>
    </g>
    <g id="Group_9" data-name="Group 9" clip-path="url(#clip-path-2)">
      <path id="Path_22" data-name="Path 22" d="M259.5-46.957H342v-84.6H259.5Z" fill="#fff"/>
    </g>
    <g id="Group_10" data-name="Group 10" clip-path="url(#clip-path-3)">
      <path id="Path_24" data-name="Path 24" d="M548.5-45.357H629v-86.2H548.5Z" fill="#fff"/>
    </g>
    <g id="Group_11" data-name="Group 11" clip-path="url(#clip-path-4)">
      <path id="Path_26" data-name="Path 26" d="M414.9-42.857H473v-67.8H414.9Z" fill="#fff"/>
    </g>
    <g id="Group_12" data-name="Group 12" clip-path="url(#clip-path-5)">
      <path id="Path_28" data-name="Path 28" d="M483-47.357h58v-62.9H483Z" fill="#fff"/>
    </g>
    <g id="Group_13" data-name="Group 13" clip-path="url(#clip-path-6)">
      <path id="Path_30" data-name="Path 30" d="M635-46.857h49.8v-63.8H635Z" fill="#fff"/>
    </g>
    <g id="Group_14" data-name="Group 14" clip-path="url(#clip-path-7)">
      <path id="Path_32" data-name="Path 32" d="M689-46.857h58v-63.2H689Z" fill="#fff"/>
    </g>
    <g id="Group_15" data-name="Group 15" clip-path="url(#clip-path-8)">
      <path id="Path_34" data-name="Path 34" d="M751.7-45.657H808v-64.4H751.7Z" fill="#fff"/>
    </g>
    <g id="Group_16" data-name="Group 16" clip-path="url(#clip-path-9)">
      <path id="Path_36" data-name="Path 36" d="M820-47.357h58.1v-63.6H820Z" fill="#fff"/>
    </g>
    <g id="Group_17" data-name="Group 17" clip-path="url(#clip-path-10)">
      <path id="Path_38" data-name="Path 38" d="M348-21.257h63.3v-89.5H348Z" fill="#fff"/>
    </g>
  </g>
</svg>
