<?xml version="1.0" encoding="utf-8"?>
<!-- Generator: Adobe Illustrator 27.7.0, SVG Export Plug-In . SVG Version: 6.00 Build 0)  -->
<svg version="1.1" id="Layer_1" xmlns="http://www.w3.org/2000/svg" xmlns:xlink="http://www.w3.org/1999/xlink" x="0px" y="0px"
	 viewBox="0 0 350 86" style="enable-background:new 0 0 350 86;" xml:space="preserve">
<style type="text/css">
	.st0{fill:#EA9C2F;}
</style>
<g>
	<path class="st0" d="M79.6,0L79.6,0h-31l-8.4,10.7h36.2c9.3,0,12.9,8,9.4,13c-2,2.8-15,19.2-15,19.2h14.1c0,0,4.1-5.3,8.4-10.8
		c3.7-4.7,9.9-13.2,4.5-22.2C92,0,83.7,0,79.6,0z"/>
	<path class="st0" d="M14.1,62.1c2-2.8,15-19.2,15-19.2H15c0,0-4.1,5.3-8.4,10.8c-3.7,4.7-9.8,13.2-4.5,22.2
		c5.8,9.9,14.2,9.9,18.2,9.9h0h31L59.7,75H23.5C14.3,75,10.6,67,14.1,62.1z"/>
	<path class="st0" d="M69.5,26.8c1.5-1.9-0.3-5.4-2.8-5.4H31.8l-8.4,10.7h27.9L30.3,59c-1.7,2.2-0.4,5.4,2.7,5.4h35.1l8.4-10.7h-28
		L69.5,26.8z"/>
	<polygon class="st0" points="159.3,37.3 159.3,30.3 124.5,30.3 124.5,39.3 144.5,39.3 123.9,63.6 123.9,70.6 159.9,70.6 
		159.9,61.6 138.7,61.6 	"/>
	<path class="st0" d="M194.6,32.2c-3.1-1.7-6.7-2.5-10.6-2.5c-4.1,0-7.8,0.9-11,2.7c-3.2,1.8-5.8,4.2-7.7,7.4
		c-1.9,3.1-2.8,6.7-2.8,10.7c0,4,1,7.6,2.9,10.7c1.9,3.1,4.6,5.5,8,7.3c3.5,1.8,7.5,2.7,12.2,2.7c3.6,0,6.9-0.5,9.7-1.7
		c2.8-1.1,5.1-2.8,7-4.9l-6.2-6.8c-1.3,1.3-2.8,2.3-4.5,2.9c-1.6,0.7-3.5,1-5.6,1c-2.4,0-4.5-0.4-6.3-1.3c-1.8-0.9-3.1-2.2-4.1-3.8
		c-0.5-0.9-0.9-1.9-1.1-3h30.5c0.1-0.5,0.1-1,0.2-1.6c0-0.6,0.1-1.1,0.1-1.6c0-4.4-0.9-8.1-2.8-11.2
		C200.3,36.3,197.8,33.9,194.6,32.2z M178.7,39.9c1.5-0.9,3.3-1.3,5.3-1.3s3.8,0.5,5.2,1.3c1.5,0.9,2.7,2.1,3.5,3.6
		c0.6,1,0.9,2.2,1.1,3.5h-19.8c0.2-1.2,0.5-2.4,1.1-3.4C176,41.9,177.2,40.7,178.7,39.9z"/>
	<path class="st0" d="M242.8,31.6c-2.5-1.3-5.3-1.9-8.5-1.9c-3.5,0-6.5,0.7-9.2,2.2c-1.6,0.9-3,1.9-4.1,3.2v-4.8h-11.2v40.3h11.7
		V50.7c0-2.5,0.4-4.6,1.2-6.2c0.8-1.6,2-2.8,3.5-3.5c1.5-0.8,3.2-1.2,5-1.2c2.6,0,4.6,0.8,6,2.3c1.5,1.6,2.2,4,2.2,7.2v21.3H251
		V47.5c0-4.1-0.7-7.5-2.2-10C247.4,34.8,245.4,32.9,242.8,31.6z"/>
	<path class="st0" d="M289.4,35.4c-1.2-1.5-2.7-2.8-4.4-3.6c-2.6-1.4-5.6-2.1-9-2.1c-3.8,0-7.1,0.8-10.2,2.4c-3,1.6-5.4,3.9-7.3,6.8
		c-1.8,2.9-2.7,6.3-2.7,10.3c0,3.9,0.9,7.3,2.7,10.3c1.8,2.9,4.3,5.2,7.3,6.8c3.1,1.6,6.5,2.4,10.2,2.4c3.4,0,6.4-0.7,9-2.1
		c1.4-0.8,2.7-1.8,3.8-3v1.8c0,3.7-1,6.4-2.8,8.2c-1.9,1.9-4.9,2.8-9,2.8c-2.5,0-5.2-0.4-7.8-1.3c-2.6-0.8-4.8-1.9-6.5-3.3l-4.7,8.4
		c2.4,1.8,5.3,3.2,8.8,4.1c3.5,1,7.2,1.4,11,1.4c7.3,0,12.9-1.8,16.8-5.3c3.9-3.5,5.8-9.1,5.8-16.6V30.3h-11.1V35.4z M287.6,54.3
		c-0.9,1.5-2.1,2.7-3.8,3.5c-1.6,0.8-3.4,1.2-5.5,1.2s-3.9-0.4-5.5-1.2c-1.6-0.8-2.9-2-3.8-3.5c-0.9-1.5-1.4-3.2-1.4-5.2
		c0-2,0.5-3.7,1.4-5.2c1-1.5,2.2-2.6,3.8-3.4c1.6-0.9,3.4-1.3,5.5-1.3s3.9,0.4,5.5,1.3c1.6,0.8,2.9,1.9,3.8,3.4
		c0.9,1.5,1.4,3.2,1.4,5.2C289,51.1,288.5,52.8,287.6,54.3z"/>
	<path class="st0" d="M346.9,39.6c-1.9-3.1-4.5-5.5-7.9-7.3c-3.3-1.8-7.1-2.7-11.4-2.7c-4.3,0-8.1,0.9-11.5,2.7
		c-3.3,1.8-5.9,4.2-7.9,7.4c-1.9,3.1-2.8,6.7-2.8,10.7c0,4,1,7.6,2.8,10.7c2,3.1,4.6,5.5,7.9,7.3c3.4,1.8,7.2,2.7,11.5,2.7
		c4.2,0,8-0.9,11.4-2.7c3.4-1.8,6-4.2,7.9-7.3c1.9-3.2,2.9-6.7,2.9-10.7C349.7,46.3,348.8,42.7,346.9,39.6z M336.5,56.4
		c-0.9,1.7-2.1,2.9-3.7,3.8c-1.6,0.9-3.3,1.3-5.2,1.3c-2,0-3.7-0.4-5.2-1.3c-1.6-0.9-2.8-2.2-3.8-3.8c-0.9-1.7-1.4-3.7-1.4-6
		c0-2.3,0.5-4.3,1.4-6c0.9-1.6,2.2-2.9,3.8-3.8c1.5-0.9,3.3-1.3,5.2-1.3c1.9,0,3.7,0.5,5.2,1.3c1.5,0.9,2.8,2.2,3.7,3.8
		c0.9,1.7,1.3,3.7,1.3,6C337.9,52.7,337.4,54.7,336.5,56.4z"/>
</g>
</svg>
