<svg width="741" height="741" viewBox="0 0 741 741" fill="none" xmlns="http://www.w3.org/2000/svg">
<rect width="741" height="741" rx="366.667" fill="black"/>
<mask id="path-2-outside-1_52_297" maskUnits="userSpaceOnUse" x="0" y="0" width="741" height="741" fill="black">
<rect fill="white" width="741" height="741"/>
<path d="M728 370.5C728 567.942 567.942 728 370.5 728C173.058 728 13 567.942 13 370.5C13 173.058 173.058 13 370.5 13C567.942 13 728 173.058 728 370.5ZM48.75 370.5C48.75 548.198 192.802 692.25 370.5 692.25C548.198 692.25 692.25 548.198 692.25 370.5C692.25 192.802 548.198 48.75 370.5 48.75C192.802 48.75 48.75 192.802 48.75 370.5Z"/>
</mask>
<g filter="url(#filter0_i_52_297)">
<path d="M728 370.5C728 567.942 567.942 728 370.5 728C173.058 728 13 567.942 13 370.5C13 173.058 173.058 13 370.5 13C567.942 13 728 173.058 728 370.5ZM48.75 370.5C48.75 548.198 192.802 692.25 370.5 692.25C548.198 692.25 692.25 548.198 692.25 370.5C692.25 192.802 548.198 48.75 370.5 48.75C192.802 48.75 48.75 192.802 48.75 370.5Z" fill="url(#paint0_linear_52_297)"/>
</g>
<path d="M728 370.5C728 567.942 567.942 728 370.5 728C173.058 728 13 567.942 13 370.5C13 173.058 173.058 13 370.5 13C567.942 13 728 173.058 728 370.5ZM48.75 370.5C48.75 548.198 192.802 692.25 370.5 692.25C548.198 692.25 692.25 548.198 692.25 370.5C692.25 192.802 548.198 48.75 370.5 48.75C192.802 48.75 48.75 192.802 48.75 370.5Z" stroke="#111010" stroke-width="24.4444" mask="url(#path-2-outside-1_52_297)"/>
<g clip-path="url(#clip0_52_297)">
<path d="M75.4807 177.371C221.373 290.434 520.671 290.434 666.563 177.371V124.866C520.671 275.578 221.373 275.578 75.4807 124.866C75.4807 142.33 75.4807 159.794 75.4807 177.371Z" fill="white"/>
<path d="M75.4807 288.329C221.373 335.504 520.671 335.504 666.563 288.329V235.823C520.671 320.535 221.373 320.535 75.4807 235.823C75.4807 253.287 75.4807 270.751 75.4807 288.329Z" fill="white"/>
<path d="M75.4807 399.223C221.373 380.398 520.671 380.398 666.563 399.223V346.718C520.671 365.542 221.373 365.542 75.4807 346.718C75.4807 364.182 75.4807 381.646 75.4807 399.223Z" fill="white"/>
<path d="M75.4807 510.223C221.373 425.511 520.671 425.511 666.563 510.223V457.717C520.671 410.542 221.373 410.542 75.4807 457.717C75.4807 475.181 75.4807 492.645 75.4807 510.223Z" fill="white"/>
<path d="M75.4807 621.133C221.373 470.421 520.671 470.421 666.563 621.133V568.628C520.671 455.565 221.373 455.565 75.4807 568.628C75.4807 586.092 75.4807 603.556 75.4807 621.133Z" fill="white"/>
<path fill-rule="evenodd" clip-rule="evenodd" d="M206.227 305.172H238.637V386.237H206.227V305.172ZM530.325 451.088H497.915V386.237H530.325V451.088Z" fill="white"/>
</g>
<defs>
<filter id="filter0_i_52_297" x="0.777832" y="0.777832" width="739.444" height="744.333" filterUnits="userSpaceOnUse" color-interpolation-filters="sRGB">
<feFlood flood-opacity="0" result="BackgroundImageFix"/>
<feBlend mode="normal" in="SourceGraphic" in2="BackgroundImageFix" result="shape"/>
<feColorMatrix in="SourceAlpha" type="matrix" values="0 0 0 0 0 0 0 0 0 0 0 0 0 0 0 0 0 0 127 0" result="hardAlpha"/>
<feOffset dy="4.88889"/>
<feGaussianBlur stdDeviation="2.44444"/>
<feComposite in2="hardAlpha" operator="arithmetic" k2="-1" k3="1"/>
<feColorMatrix type="matrix" values="0 0 0 0 0 0 0 0 0 0 0 0 0 0 0 0 0 0 0.25 0"/>
<feBlend mode="normal" in2="shape" result="effect1_innerShadow_52_297"/>
</filter>
<linearGradient id="paint0_linear_52_297" x1="593.564" y1="615.472" x2="-67.9266" y2="254.104" gradientUnits="userSpaceOnUse">
<stop stop-color="#00F3FA"/>
<stop offset="1" stop-color="#6C40DE"/>
</linearGradient>
<clipPath id="clip0_52_297">
<rect x="210" y="210" width="320" height="326" fill="white"/>
</clipPath>
</defs>
</svg>
