<svg width="501" height="500" viewBox="0 0 501 500" fill="none" xmlns="http://www.w3.org/2000/svg">
<path d="M416.941 191.68V191.712C416.941 192.42 416.941 193.111 416.909 193.851C416.877 195.057 416.813 196.28 416.701 197.502C416.589 198.789 416.445 200.076 416.285 201.346C415.789 205.126 414.989 208.841 413.902 212.476C413.534 213.715 413.134 214.953 412.686 216.16C403.697 208.568 393.396 202.472 382.199 198.274C382.583 196.151 382.775 193.964 382.775 191.728C382.775 189.122 382.503 186.613 382.007 184.153C381.895 183.557 381.751 182.946 381.591 182.351C381.288 181.161 380.936 180.003 380.52 178.877C380.104 177.735 379.624 176.609 379.096 175.499C376.249 169.516 371.834 164.418 366.38 160.718C362.941 158.37 359.054 156.601 354.896 155.523C354.304 155.362 353.696 155.218 353.104 155.105C350.705 154.606 348.194 154.349 345.618 154.349C344.371 154.349 343.123 154.413 341.907 154.542C323.129 156.408 308.462 172.331 308.462 191.728C308.462 194.044 308.67 196.312 309.085 198.499C297.953 202.746 287.7 208.857 278.775 216.481C276.679 210.804 275.288 204.885 274.68 198.837C274.68 198.66 274.648 198.483 274.632 198.29C274.504 196.907 274.408 195.524 274.36 194.157C274.36 194.06 274.36 193.948 274.36 193.851C274.36 193.127 274.328 192.42 274.328 191.712V191.68C274.328 189.074 274.456 186.501 274.744 183.96C274.84 183.059 274.952 182.174 275.064 181.257C275.688 176.947 276.695 172.749 278.071 168.712C278.391 167.731 278.743 166.75 279.126 165.785C280.246 162.874 281.558 160.059 283.029 157.341C283.557 156.36 284.117 155.395 284.693 154.446C285.285 153.481 285.876 152.548 286.5 151.631C287.156 150.682 287.828 149.717 288.5 148.8C289.203 147.883 289.875 147.015 290.595 146.114C290.595 146.114 290.627 146.114 290.627 146.082C291.667 144.811 292.77 143.573 293.89 142.383C295.026 141.192 296.193 140.034 297.409 138.925C298.609 137.799 299.84 136.737 301.136 135.708C301.776 135.209 302.431 134.695 303.103 134.18C309.037 129.757 315.675 126.218 322.841 123.79C323.961 123.42 325.065 123.066 326.2 122.728C327.304 122.423 328.424 122.133 329.543 121.86C329.575 121.86 329.607 121.86 329.623 121.86C332.502 121.2 335.461 120.718 338.437 120.412C339.028 120.348 339.636 120.299 340.244 120.251C342.035 120.123 343.875 120.042 345.714 120.042C350.609 120.042 355.407 120.541 360.03 121.49C361.182 121.731 362.317 122.004 363.453 122.294C364.589 122.583 365.692 122.889 366.828 123.259C368.491 123.774 370.139 124.369 371.754 125.012C372.458 125.285 373.146 125.575 373.834 125.881C374.57 126.186 375.305 126.524 376.009 126.862C383.479 130.416 390.229 135.241 395.987 141.032C397.187 142.238 398.37 143.509 399.49 144.811C399.858 145.246 400.242 145.696 400.626 146.146C401.25 146.902 401.841 147.674 402.417 148.446C404.593 151.325 406.56 154.365 408.287 157.582C408.831 158.595 409.375 159.609 409.855 160.638C409.855 160.686 409.903 160.718 409.903 160.734C410.367 161.667 410.799 162.648 411.199 163.613C411.758 164.916 412.286 166.235 412.75 167.586C412.91 167.972 413.054 168.358 413.166 168.744C414.526 172.781 415.549 176.963 416.157 181.29C416.269 182.206 416.397 183.091 416.477 183.992C416.781 186.533 416.909 189.09 416.909 191.712L416.941 191.68Z" fill="#F0C43F"/>
<path d="M240.29 308.449C240.29 347.935 208.3 379.877 169.192 379.877C130.083 379.877 97.9811 347.935 97.9811 308.449H132.067C132.067 328.988 148.718 345.78 169.192 345.78C189.665 345.78 206.044 328.988 206.044 308.449H240.29Z" fill="#F0C43F"/>
<path d="M168.344 120.058C122.454 120.058 84.9771 157.566 84.9771 203.888C84.9771 250.209 122.454 287.363 168.344 287.363C214.234 287.363 251.535 250.032 251.535 203.888C251.535 157.743 214.234 120.058 168.344 120.058ZM168.344 253.04C141.152 253.04 119.127 230.941 119.127 203.888C119.127 176.835 141.168 154.397 168.344 154.397C195.52 154.397 217.401 176.561 217.401 203.888C217.401 231.214 195.424 253.04 168.344 253.04Z" fill="#F0C43F"/>
<path d="M345.938 212.653C300.048 212.653 262.571 250.161 262.571 296.482C262.571 342.804 300.048 379.958 345.938 379.958C391.828 379.958 429.129 342.627 429.129 296.482C429.129 250.338 391.828 212.653 345.938 212.653ZM345.938 345.635C318.746 345.635 296.721 323.536 296.721 296.482C296.721 269.429 318.762 246.992 345.938 246.992C373.114 246.992 394.995 269.156 394.995 296.482C394.995 323.809 373.018 345.635 345.938 345.635Z" fill="#F0C43F"/>
</svg>
