<?xml version="1.0" encoding="utf-8"?>
<!-- Generator: Adobe Illustrator 25.0.1, SVG Export Plug-In . SVG Version: 6.00 Build 0)  -->
<svg version="1.1" id="Capa_1" xmlns="http://www.w3.org/2000/svg" xmlns:xlink="http://www.w3.org/1999/xlink" x="0px" y="0px"
	 viewBox="0 0 272 61" style="enable-background:new 0 0 272 61;" xml:space="preserve">
<style type="text/css">
	.st0{enable-background:new    ;}
	.st1{fill:#FFFFFF;}
</style>
<g class="st0">
	<path class="st1" d="M58.5,37.5H38.8c0.2,1.4,0.8,2.7,1.6,3.8c0.8,1.1,1.9,2.1,3.2,2.8c1.3,0.7,2.8,1.1,4.4,1.1
		c2.6,0,4.8-0.7,6.6-2.1c0.4-0.4,0.9-0.5,1.4-0.5c0.5,0,0.9,0.2,1.2,0.5c0.3,0.3,0.5,0.7,0.5,1.1c0,0.5-0.2,1-0.7,1.5
		c-1.1,1-2.4,1.8-4,2.3c-1.6,0.5-3.2,0.7-4.9,0.7c-2.6,0-4.8-0.6-6.8-1.7c-2-1.2-3.5-2.7-4.6-4.8c-1.1-2-1.6-4.3-1.6-6.8
		c0-2.7,0.6-5,1.8-7c1.2-2,2.8-3.5,4.7-4.5c2-1,4-1.5,6.2-1.5c2.3,0,4.5,0.5,6.5,1.4c2,0.9,3.6,2.4,4.8,4.3c1.2,2,1.8,4.4,1.9,7.3
		C61,36.7,60.2,37.5,58.5,37.5z M57.5,34.5c-0.2-1.9-0.7-3.5-1.6-4.9c-0.9-1.3-2.1-2.3-3.5-3c-1.4-0.7-2.8-1-4.3-1
		c-2.5,0-4.6,0.8-6.5,2.3c-1.8,1.5-2.8,3.7-3,6.6H57.5z"/>
	<path class="st1" d="M82.3,26.2c-1.2-0.5-2.4-0.7-3.7-0.7c-1.7,0-3.3,0.4-4.6,1.3c-1.4,0.9-2.4,2.1-3.2,3.6
		c-0.8,1.5-1.1,3.2-1.1,5.1c0,1.8,0.4,3.4,1.1,4.9c0.8,1.5,1.8,2.7,3.2,3.5c1.4,0.9,3,1.3,4.8,1.3c1.4,0,2.7-0.3,4-0.8
		c1.3-0.5,2.3-1.4,3.2-2.5c0.3-0.4,0.7-0.6,1.2-0.6c0.5,0,0.9,0.2,1.2,0.5c0.4,0.3,0.6,0.7,0.6,1.2c0,0.4-0.2,0.8-0.5,1.2
		c-1.2,1.4-2.6,2.5-4.4,3.3c-1.7,0.8-3.5,1.2-5.4,1.2c-2.5,0-4.7-0.6-6.6-1.8c-1.9-1.2-3.4-2.8-4.5-4.8c-1.1-2-1.6-4.2-1.6-6.7
		c0-1.9,0.4-3.9,1.3-5.9s2.2-3.7,4.2-5.1c1.9-1.4,4.5-2.1,7.6-2.1c1.8,0,3.4,0.3,4.9,1c1.5,0.7,2.9,1.7,4.1,3.2
		c0.3,0.3,0.4,0.6,0.4,1c0,0.4-0.2,0.8-0.5,1.1c-0.4,0.3-0.8,0.5-1.2,0.5c-0.4,0-0.8-0.2-1.2-0.6C84.5,27.4,83.5,26.7,82.3,26.2z"/>
	<path class="st1" d="M116.4,37.5H96.6c0.2,1.4,0.8,2.7,1.6,3.8c0.8,1.1,1.9,2.1,3.2,2.8c1.3,0.7,2.8,1.1,4.4,1.1
		c2.6,0,4.8-0.7,6.6-2.1c0.4-0.4,0.9-0.5,1.4-0.5c0.5,0,0.9,0.2,1.2,0.5c0.3,0.3,0.5,0.7,0.5,1.1c0,0.5-0.2,1-0.7,1.5
		c-1.1,1-2.4,1.8-4,2.3c-1.6,0.5-3.2,0.7-4.9,0.7c-2.6,0-4.8-0.6-6.8-1.7c-2-1.2-3.5-2.7-4.6-4.8c-1.1-2-1.6-4.3-1.6-6.8
		c0-2.7,0.6-5,1.8-7c1.2-2,2.8-3.5,4.7-4.5c2-1,4-1.5,6.2-1.5c2.3,0,4.5,0.5,6.5,1.4c2,0.9,3.6,2.4,4.8,4.3c1.2,2,1.8,4.4,1.9,7.3
		C118.8,36.7,118,37.5,116.4,37.5z M115.3,34.5c-0.2-1.9-0.7-3.5-1.6-4.9c-0.9-1.3-2.1-2.3-3.5-3c-1.4-0.7-2.8-1-4.3-1
		c-2.5,0-4.6,0.8-6.5,2.3c-1.8,1.5-2.8,3.7-3,6.6H115.3z"/>
	<path class="st1" d="M145,29.4c-0.7-1.2-1.7-2.1-2.8-2.8c-1.2-0.7-2.5-1-3.8-1c-1.6,0-3.1,0.4-4.6,1.2c-1.5,0.8-2.6,2-3.5,3.4
		c-0.9,1.5-1.3,3.1-1.3,4.8v11.2c0,0.6-0.2,1-0.5,1.3c-0.3,0.3-0.8,0.5-1.3,0.5c-0.6,0-1-0.2-1.4-0.5s-0.5-0.7-0.5-1.3V24.5
		c0-0.5,0.2-1,0.5-1.3c0.4-0.3,0.8-0.5,1.3-0.5s0.9,0.2,1.3,0.5c0.4,0.3,0.5,0.8,0.5,1.3v2.9c0.9-1.7,2.2-3,3.9-3.9
		c1.7-0.9,3.6-1.3,5.7-1.3c2,0,3.8,0.4,5.5,1.3s3.1,2.2,4.2,3.9c1.1,1.7,1.6,3.7,1.6,6v12.8c0,0.6-0.2,1-0.5,1.3
		c-0.3,0.3-0.8,0.5-1.3,0.5s-1-0.2-1.3-0.5c-0.3-0.3-0.5-0.7-0.5-1.3V33.4C146.1,31.9,145.7,30.6,145,29.4z"/>
	<path class="st1" d="M169.2,23.2c0.3,0.3,0.5,0.6,0.5,1c0,0.4-0.2,0.8-0.5,1.1s-0.7,0.5-1.2,0.5h-5.5v13.6c0,1.8,0.3,3.2,0.8,4.2
		c0.5,1.1,1.5,1.6,3.1,1.6c0.4,0,0.8-0.1,1.3-0.2s0.8-0.2,1.1-0.4c0.4-0.2,0.7-0.3,1-0.3c0.4,0,0.8,0.2,1.1,0.5
		c0.3,0.3,0.5,0.7,0.5,1.2c0,0.7-0.4,1.2-1.1,1.7c-1,0.6-2.3,0.8-3.8,0.8c-5,0-7.5-3-7.5-9.2V25.8h-3.3c-0.5,0-1-0.2-1.2-0.5
		s-0.5-0.6-0.5-1s0.2-0.8,0.5-1.1c0.3-0.3,0.7-0.5,1.2-0.5h3.3v-6c0-0.6,0.2-1,0.5-1.3c0.3-0.3,0.8-0.5,1.3-0.5s0.9,0.2,1.3,0.5
		c0.3,0.3,0.5,0.8,0.5,1.3v6h5.5C168.5,22.7,168.9,22.8,169.2,23.2z"/>
	<path class="st1" d="M187.1,22.2c0.6,0,1.1,0.1,1.4,0.5c0.3,0.3,0.5,0.7,0.5,1.3c0,0.5-0.2,1-0.5,1.2s-0.8,0.5-1.4,0.5
		c-2.4,0-4.3,0.8-5.5,2.5c-1.2,1.7-1.9,3.9-1.9,6.6v11.5c0,0.5-0.2,0.9-0.5,1.2c-0.4,0.3-0.8,0.5-1.3,0.5c-0.6,0-1-0.2-1.3-0.5
		c-0.3-0.3-0.5-0.7-0.5-1.3V24.5c0-0.5,0.2-1,0.6-1.3c0.4-0.3,0.8-0.5,1.3-0.5s0.9,0.2,1.2,0.5c0.3,0.3,0.5,0.7,0.5,1.3v2
		C181,23.6,183.5,22.2,187.1,22.2z"/>
	<path class="st1" d="M209,23.2c1.4,0.6,2.5,1.6,3.4,3v-1.7c0-0.5,0.2-1,0.5-1.3c0.3-0.3,0.8-0.5,1.3-0.5c0.5,0,1,0.2,1.3,0.5
		c0.3,0.3,0.5,0.8,0.5,1.3v21.7c0,0.5-0.2,1-0.5,1.3c-0.3,0.3-0.8,0.5-1.3,0.5c-0.6,0-1-0.2-1.3-0.5c-0.3-0.3-0.5-0.8-0.5-1.3V44
		c-0.7,1.4-1.8,2.5-3.4,3.2c-1.6,0.8-3.1,1.2-4.7,1.2c-2.4,0-4.6-0.5-6.5-1.6c-1.9-1.1-3.5-2.6-4.6-4.6c-1.1-2-1.7-4.4-1.7-7.1
		c0-2.8,0.6-5.1,1.7-7.1c1.2-2,2.7-3.4,4.7-4.4s4.2-1.5,6.6-1.5C206.1,22.2,207.6,22.5,209,23.2z M210.1,42.9
		c1.5-1.4,2.3-3.2,2.3-5.6v-3.9c0-2.4-0.7-4.3-2.2-5.6c-1.5-1.3-3.4-2-5.8-2.1c-1.9,0-3.6,0.4-5,1.2c-1.4,0.9-2.5,2-3.2,3.5
		c-0.7,1.5-1.1,3.1-1.1,4.8c0,2.3,0.5,4.1,1.5,5.6c1,1.5,2.2,2.5,3.7,3.2s2.8,1,4,1C206.7,45,208.6,44.3,210.1,42.9z"/>
	<path class="st1" d="M226.6,47.5c-0.4,0.3-0.8,0.5-1.3,0.5c-0.5,0-1-0.2-1.3-0.5c-0.3-0.3-0.5-0.7-0.5-1.2v-30
		c0-0.5,0.2-0.9,0.5-1.2c0.4-0.3,0.8-0.5,1.3-0.5c0.5,0,0.9,0.2,1.3,0.5c0.3,0.3,0.5,0.7,0.5,1.2v30
		C227.1,46.8,226.9,47.2,226.6,47.5z"/>
</g>
<g class="st0">
	<path class="st1" d="M232.9,13h24.2v6h-18.2v10.5h15v6h-15V48h-6V13z"/>
	<path class="st1" d="M261.7,14.5c0-1.1,0.4-2,1-2.6c0.7-0.7,1.6-1.1,2.6-1.1c1.1,0,1.9,0.4,2.6,1.1c0.7,0.7,1,1.6,1,2.6
		c0,1-0.3,1.9-1,2.5c-0.7,0.7-1.6,1.1-2.6,1.1c-1,0-1.9-0.4-2.6-1.1C262.1,16.4,261.7,15.5,261.7,14.5z M262.4,23h5.9v25h-5.9V23z"
		/>
</g>
<g>
	<g>
		<path class="st1" d="M28.2,23.8c-1.3-2.4-3-4.3-5.3-5.6c-2.3-1.3-4.9-2-7.9-2H3.9c0,0-0.1,0-0.1,0c0,0-0.1,0-0.1,0H3.7l0,0
			c-1.3,0.1-2.3,1.1-2.3,2.4c0,0,0,0,0,0h0V39c0,1.4,1.1,2.5,2.5,2.5c1.4,0,2.5-1.1,2.5-2.5V21.1l0,0H15c1.8,0,4.3,0.5,5.7,1.4
			c1.4,0.9,2.5,2.2,3.3,3.9c0.8,1.7,1.2,3.6,1.2,5.8c0,2.2-0.4,4.1-1.2,5.8c-0.8,1.7-1.9,3-3.3,3.9c-1.4,0.9-3.9,1.4-5.7,1.4h-4.5
			c-1.4,0-2.5,1.1-2.5,2.5c0,1.4,1.1,2.5,2.5,2.5H15c3,0,5.6-0.7,7.9-2c2.3-1.3,4.1-3.2,5.3-5.6c1.3-2.4,1.9-5.2,1.9-8.4
			C30.1,29,29.5,26.2,28.2,23.8z"/>
		<circle class="st1" cx="3.9" cy="45.6" r="2.5"/>
	</g>
</g>
</svg>
