<?xml version="1.0" encoding="utf-8"?>
<!-- Generator: Adobe Illustrator 26.3.1, SVG Export Plug-In . SVG Version: 6.00 Build 0)  -->
<svg version="1.1" id="Layer_1" xmlns="http://www.w3.org/2000/svg" xmlns:xlink="http://www.w3.org/1999/xlink" x="0px" y="0px"
	 viewBox="0 0 572 480" style="enable-background:new 0 0 572 480;" xml:space="preserve">
<style type="text/css">
	.st0{fill-rule:evenodd;clip-rule:evenodd;fill:#FFFFFF;}
	.st1{fill-rule:evenodd;clip-rule:evenodd;fill:#66EDA8;}
</style>
<g id="Navigation_x2F_header_x5F_L" transform="translate(-165.000000, -28.000000)">
	<g id="edge_logo_light" transform="translate(165.000000, 28.000000)">
		<path id="Fill-1" class="st0" d="M715.5,209.3c-0.4-2.2-2.4-4-4.8-4c-2.3,0-4.4,1.6-4.8,4H715.5z M705.8,211.9
			c0.7,2.7,2.8,4.2,5.2,4.2c2,0,3.8-1.1,4.9-2.2l2,2.4c-2.1,2.1-4.7,3-6.9,3c-5,0-8.6-4.1-8.6-8.7c0-4.7,3.7-8.3,8.3-8.3
			c4.8,0,8.4,3.8,8.4,9.5L705.8,211.9L705.8,211.9z"/>
		<path id="Fill-3" class="st0" d="M734.8,210.8c0-2.9-2.3-5.2-5.2-5.2c-2.8,0-5.2,2.3-5.2,5.2c0,2.8,2.3,5.1,5.2,5.1
			C732.5,216,734.8,213.7,734.8,210.8 M734.8,204.3V196h3.3v23h-2.8v-2c-1.4,1.4-3.5,2.3-5.7,2.3c-4.7,0-8.5-3.8-8.5-8.5
			s3.8-8.5,8.5-8.5C731.6,202.4,733.5,203.1,734.8,204.3"/>
		<path id="Fill-5" class="st0" d="M753.8,210.8c0-2.9-2.3-5.2-5.2-5.2c-2.8,0-5.2,2.3-5.2,5.2c0,2.8,2.3,5.2,5.2,5.2
			C751.5,216,753.8,213.7,753.8,210.8z M757.1,217.2c0,6.3-3.8,8.7-7.6,8.7c-1.4,0-3.1-0.3-4.7-1.4l1.3-2.7c1.1,0.6,2,1,3.2,1
			c2.7,0,4.6-1.9,4.6-5.5c-1.4,1.3-3.3,2.1-5.3,2.1c-4.7,0-8.5-3.8-8.5-8.5c0-4.7,3.8-8.5,8.5-8.5c2.2,0,4.1,0.9,5.6,2.3v-2h2.9
			V217.2z"/>
		<g id="Group-9" transform="translate(85.188679, 6.131321)">
			<g id="Clip-8">
			</g>
			<path id="Fill-7" class="st0" d="M687.1,203.1c-0.4-2.2-2.4-4-4.8-4c-2.3,0-4.4,1.6-4.8,4H687.1z M677.4,205.8
				c0.7,2.6,2.9,4.2,5.3,4.2c2,0,3.8-1.1,4.9-2.2l2,2.4c-2.1,2.1-4.7,3-6.9,3c-5,0-8.6-4.1-8.6-8.7c0-4.7,3.7-8.3,8.3-8.3
				c4.8,0,8.4,3.8,8.4,9.5L677.4,205.8L677.4,205.8z"/>
		</g>
		<polygon id="Fill-10" class="st1" points="698.6,199.4 691.3,219.4 674.4,219.4 678.2,209 684.9,209 688.4,199.4 		"/>
		<polygon id="Fill-12" class="st1" points="686.9,196 683,206.5 674,206.5 677.8,196 		"/>
	</g>
</g>
<g>
	<polygon id="Fill-10_00000127737444145563792700000016405999677072659376_" class="st1" points="538.3,69.7 388.6,480 41.9,480 
		119.8,266.7 257.3,266.7 329.1,69.7 	"/>
	<polygon id="Fill-12_00000171712209875305495330000012434567556036339646_" class="st1" points="298.3,0 218.3,215.4 33.7,215.4 
		111.6,0 	"/>
</g>
</svg>
