<svg width="96" height="70" viewBox="0 0 96 70" fill="none" xmlns="http://www.w3.org/2000/svg">
<g clip-path="url(#clip0_1959_53719)">
<path d="M86.4637 27.6477C80.989 25.5985 76.245 26.6832 71.917 29.3976L66.5117 5.18704C66.3115 4.29065 65.9276 3.44572 65.3843 2.70579C64.841 1.96586 64.1503 1.34708 63.3557 0.888672C62.5612 0.430268 61.6803 0.142239 60.7689 0.0428435C59.8574 -0.0565523 58.9353 0.0348535 58.061 0.311267L34.7623 7.68504C33.0755 8.21894 31.5581 9.18718 30.362 10.4929C29.1658 11.7987 28.3328 13.3961 27.9463 15.1256L24.4423 30.8082C16.8263 25.2218 10.9383 26.563 7.79425 28.1366C1.42091 31.3426 -1.38176 38.9728 0.652909 47.5943C3.28758 58.7511 13.5996 70.0015 30.7196 70.0015C46.1863 70.0015 56.4023 57.8748 64.6103 48.1339C72.4877 38.7831 77.6157 33.1727 83.5757 35.3928C86.9117 36.6405 88.261 39.1866 87.5757 42.9563C86.1703 50.7522 75.8183 61.73 57.2076 61.73V70.0122C73.861 70.0122 92.8103 60.4449 95.6957 44.4364C97.0903 36.7313 93.5517 30.3006 86.4637 27.6477ZM58.3036 42.8013C50.461 52.1014 42.3516 61.7354 30.7196 61.7354C18.1143 61.7354 10.5703 53.6776 8.68492 45.6921C7.83425 42.0826 8.05825 37.2576 11.4929 35.5397C15.0183 33.7711 19.4183 37.0065 22.4103 39.9239L20.4236 48.8125H28.8823L35.7543 18.0377C35.911 17.3377 36.2485 16.6912 36.7328 16.1628C37.2172 15.6345 37.8314 15.2427 38.5143 15.0268L56.149 9.44566C56.4877 9.33864 56.845 9.30327 57.1981 9.34179C57.5513 9.38032 57.8926 9.49189 58.2004 9.66946C58.5083 9.84703 58.7759 10.0867 58.9865 10.3733C59.1971 10.66 59.3459 10.9873 59.4236 11.3345L64.7996 35.4195C62.581 37.7252 60.4316 40.2739 58.3036 42.8013Z" fill="white"/>
</g>
<defs>
<clipPath id="clip0_1959_53719">
<rect width="96" height="70" fill="white"/>
</clipPath>
</defs>
</svg>
