<svg width="2056" height="944" viewBox="0 0 2056 944" fill="none" xmlns="http://www.w3.org/2000/svg">
<mask id="mask0_3688_1531" style="mask-type:luminance" maskUnits="userSpaceOnUse" x="0" y="0" width="2056" height="944">
<path d="M2056 0H0V944H2056V0Z" fill="white"/>
</mask>
<g mask="url(#mask0_3688_1531)">
<path d="M734.3 373.4C724.6 373.4 716.5 376.8 710 383.4C703.6 390 700.4 398.4 700.4 408.3C700.4 418.2 703.6 426.6 710 433.2C716.4 439.8 724.6 443.2 734.2 443.2C743.9 443.2 752 439.8 758.5 433.2C764.9 426.6 768.1 418.2 768.1 408.3C768.1 398.4 764.9 390 758.5 383.4C752.1 376.8 744 373.4 734.3 373.4Z" fill="#FFDD0F"/>
<path d="M762.801 477H706.301V747.5H762.801V477Z" fill="#F1F1F1"/>
<path d="M957.101 563.1L854.201 393.1H793.601L928.101 627.7V747.5H986.101V625.7L1118.6 393.1H1058.1L957.101 563.1Z" fill="#F1F1F1"/>
<path d="M1206.4 477H1149.9V747.5H1206.4V477Z" fill="#F1F1F1"/>
<path d="M1178 373.4C1168.3 373.4 1160.2 376.8 1153.7 383.4C1147.3 390 1144.1 398.4 1144.1 408.3C1144.1 418.2 1147.3 426.6 1153.7 433.2C1160.1 439.8 1168.3 443.2 1178 443.2C1187.7 443.2 1195.8 439.8 1202.3 433.2C1208.7 426.6 1211.9 418.2 1211.9 408.3C1211.9 398.4 1208.7 390 1202.3 383.4C1195.8 376.8 1187.6 373.4 1178 373.4Z" fill="#F1F1F1"/>
<path d="M1393.9 475.5C1367.9 475.5 1344.4 481.4 1324 493.2C1303.6 504.9 1287.5 521.3 1276.1 541.9C1264.8 562.4 1259 586.2 1259 612.5C1259 638.8 1264.7 662.7 1276.1 683.3C1287.5 704.1 1303.8 720.4 1324.3 731.8C1344.8 743.2 1368.6 748.9 1394.9 748.9C1417.5 748.9 1438.3 745 1456.9 737.2C1475.5 729.4 1491.7 718.2 1504.9 704L1508.4 700.2L1475.9 666.4L1472 670.4C1462.8 679.9 1451.7 687.5 1439.2 692.7C1426.7 697.9 1413 700.6 1398.4 700.6C1376.6 700.6 1358.1 694.1 1343.3 681.3C1329.9 669.7 1321.1 654.3 1317.1 635.4H1520.6L1521.1 630.5C1521.4 627 1521.6 621.9 1521.6 615.2C1521.6 571.8 1510.7 537.4 1489.4 512.7C1467.7 488.1 1435.6 475.5 1393.9 475.5ZM1469 589.4H1316.3C1319.8 570.4 1328 555 1340.8 543.4C1354.9 530.7 1372.9 524.2 1394.3 524.2C1416.3 524.2 1434.2 530.6 1447.5 543.1C1459.7 554.5 1466.9 570 1469 589.4Z" fill="#F1F1F1"/>
<path d="M1631.9 372.5H1575.4V747.5H1631.9V372.5Z" fill="#F1F1F1"/>
<path d="M1909.1 372.5V515.9C1900.5 505 1890.1 496.1 1877.9 489.5C1860.5 479.9 1839.9 475.1 1816.9 475.1C1791.8 475.1 1769.2 481 1749.6 492.6C1730 504.2 1714.5 520.5 1703.6 541.1C1692.8 561.6 1687.3 585.3 1687.3 611.6C1687.3 638.2 1692.8 662.3 1703.6 683C1714.5 703.9 1729.9 720.5 1749.5 732.3C1769.1 744 1791.9 750 1817.3 750C1840 750 1860.3 745.1 1877.6 735.3C1889.8 728.4 1900.3 719.4 1909 708.4V747.6H1965.5V372.6H1909.1V372.5ZM1909.1 613C1909.1 629.7 1905.5 644.8 1898.5 658C1891.5 671.1 1881.7 681.5 1869.3 688.8C1857 696.1 1842.6 699.8 1826.7 699.8C1810.7 699.8 1796.4 696.1 1784.1 688.8C1771.8 681.5 1762 671.1 1755 658C1747.9 644.8 1744.4 629.7 1744.4 613C1744.4 596.3 1748 581.2 1755 568C1762 554.9 1771.8 544.4 1784.2 537C1796.5 529.5 1810.9 525.8 1826.8 525.8C1842.7 525.8 1857.1 529.5 1869.4 536.8C1881.7 544.1 1891.5 554.4 1898.6 567.6C1905.5 580.6 1909.1 596 1909.1 613Z" fill="#F1F1F1"/>
</g>
<mask id="mask1_3688_1531" style="mask-type:luminance" maskUnits="userSpaceOnUse" x="0" y="0" width="2056" height="944">
<path d="M2056 0H0V944H2056V0Z" fill="white"/>
</mask>
<g mask="url(#mask1_3688_1531)">
<mask id="mask2_3688_1531" style="mask-type:luminance" maskUnits="userSpaceOnUse" x="-52" y="20" width="861" height="860">
<path d="M808.3 20H-51.7002V880H808.3V20Z" fill="white"/>
</mask>
<g mask="url(#mask2_3688_1531)">
<path d="M469.6 410.1L347.4 501C347.4 501 345.3 471.7 361 435.2C376.7 398.6 416.4 360 416.4 360C416.4 360 468.6 392.3 469.6 410.1Z" fill="url(#paint0_linear_3688_1531)"/>
<path d="M453.5 408.4C406.5 455.2 348.3 486.5 348.3 486.5C347.9 486.9 347.5 487.3 347.1 487.6C367.6 480.6 399.7 463.5 446.3 486.1C449.2 487.5 454.3 487.2 457.1 489.1C467.6 490.8 480.2 484 487 476.2C493.6 468.7 496.9 455.2 497.2 443.2C497.3 443.1 497.3 443.1 497.4 443C494.2 433.5 487.7 424.6 480.3 418.8C473.1 413.1 462.6 408.5 453.5 408.4Z" fill="url(#paint1_linear_3688_1531)"/>
<path d="M144 578.8C143.8 578.8 143.5 578.8 143.2 578.9C143.3 578.8 143.5 578.8 144 578.8Z" fill="#FBED21"/>
<path d="M444.4 288.9C436.7 227.2 389.7 163.8 330.2 127.5C328.7 126.8 327.1 126.1 325.6 125.4C325.2 126 325.7 126.7 326.5 127.3C333 132.1 332.1 135.9 338.1 143.7C357.3 168.4 375.3 207.4 361.9 245C358.5 254.7 353.2 263 352.2 276.1C352.6 294.4 352.9 308.4 351.9 325.5C351.2 338 350.4 349.5 351.9 359.9C359.9 363 367.9 366.2 375.9 369.5C390.2 375.4 404.3 381.6 418 388.4C418.7 386.9 427.2 387.1 427.8 385.6C439.4 360.3 448.6 323 444.4 288.9Z" fill="url(#paint2_linear_3688_1531)"/>
<path d="M256.2 321C273.9 333.4 293.7 342.9 313.7 350.6C326 355.4 339.2 360.3 351.9 359.9C355.5 348.7 357.8 336.8 358.5 324.3C359.5 307.2 357.2 291.2 352.2 276.1C329.1 284 330.3 284.7 314.6 292.3C298.8 300 278.5 300.6 256.2 321Z" fill="url(#paint3_linear_3688_1531)"/>
<path d="M408.2 407C407.6 408.1 407 409.1 406.4 410.1C407.1 409.1 407.7 408.1 408.2 407Z" fill="url(#paint4_linear_3688_1531)"/>
<path d="M412.2 399.7C411.9 400.4 411.5 401 411.2 401.7C411.5 401 411.9 400.3 412.2 399.7Z" fill="url(#paint5_linear_3688_1531)"/>
<path d="M410.2 403.4C409.7 404.2 409.3 405.1 408.8 405.9C409.3 405.1 409.8 404.2 410.2 403.4Z" fill="url(#paint6_linear_3688_1531)"/>
<path d="M414.2 395.7C413.9 396.2 413.7 396.7 413.4 397.2C413.7 396.8 414 396.2 414.2 395.7Z" fill="url(#paint7_linear_3688_1531)"/>
<path d="M331.2 500C357.6 474.7 367.7 439.3 333 391.6C313.6 412.2 294.1 432.2 270.5 444.3C233.8 463.2 196.7 480.8 169.4 512.9C154.2 530.8 146.9 555.4 144.8 578.7C146 578.6 147.9 578.4 150.5 578.1C179.3 574.8 208 567.3 234.1 556.4C289.1 535.1 357.3 493.8 404 414.4C383 450.1 357.7 478 331.2 500Z" fill="url(#paint8_linear_3688_1531)"/>
<path d="M255.6 322.6C255.6 322.1 255.5 321.5 255.5 321C254.9 321.1 254.4 321.2 253.8 321.3C179.2 340 146.9 378.7 138.5 444.3C145.7 438.6 153.3 441.2 160.8 437.4C178.2 428.4 196.9 417.8 212.8 406.4C231.4 393 250.6 369.6 256.8 346.8C258.9 339.2 256.1 330.8 255.6 322.6Z" fill="url(#paint9_linear_3688_1531)"/>
<path d="M275.4 446.4C299 434.3 318.8 417.5 333.2 397.1C326.8 381.2 317.7 368.7 304.8 356.3C291.9 343.9 274.7 332.3 255.5 321.1C256 329.3 255.5 338.9 253.4 346.5C247.2 369.3 229.6 386.8 210.9 400.3C195 411.8 178 421 160.7 430C153.3 433.9 145.7 438.8 138.5 444.5C133.9 480.7 136.5 525.1 143.3 578.9C143.3 578.9 143.6 578.9 144.1 578.8C144.3 578.8 144.6 578.8 144.9 578.7C147 555.4 157.3 534.2 172.5 516.3C199.7 484.3 238.7 465.3 275.4 446.4Z" fill="url(#paint10_linear_3688_1531)"/>
<path d="M411.2 401.6C410.9 402.2 410.6 402.8 410.2 403.4C410.5 402.8 410.9 402.2 411.2 401.6Z" fill="url(#paint11_linear_3688_1531)"/>
<path d="M408.9 405.9C408.7 406.3 408.5 406.6 408.3 407C408.4 406.7 408.6 406.3 408.9 405.9Z" fill="url(#paint12_linear_3688_1531)"/>
<path d="M413.5 397.3C413.1 398.1 412.7 398.9 412.2 399.7C412.6 398.9 413 398.1 413.5 397.3Z" fill="url(#paint13_linear_3688_1531)"/>
<path d="M406.5 410.2C406.4 410.4 406.3 410.6 406.2 410.8C406.3 410.5 406.4 410.4 406.5 410.2Z" fill="url(#paint14_linear_3688_1531)"/>
<path d="M415.7 392.8C415.2 393.8 414.7 394.7 414.2 395.7C414.7 394.8 415.2 393.8 415.7 392.8Z" fill="url(#paint15_linear_3688_1531)"/>
<path d="M333.2 397.1C339.1 397.1 345.5 390.3 348.5 384.4C351.8 378 355.7 367.8 351.8 359.9C341.1 355.8 330.5 351.7 319.8 347.6C298.2 339.3 276.7 330.7 256.1 321C255.9 321 255.7 321.1 255.5 321.1C292.5 347.1 318 373.6 333.2 397.1Z" fill="url(#paint16_linear_3688_1531)"/>
<path d="M139.5 177.1C133.1 173.8 125.4 173.1 121.6 172.1C140.5 230.7 175.2 279.3 241.4 313.6C246 316 250.8 318.3 255.5 320.6C258.7 307.4 254.4 292.2 248.9 280.4C232.4 244.9 195 205.6 139.5 177.1Z" fill="url(#paint17_linear_3688_1531)"/>
<path d="M363.9 247.7C360.9 256.3 356.7 264.7 350.9 272.6C351.3 273.8 351.7 274.9 352.1 276.1C359.5 267.5 364.8 258.1 368.2 248.4C386.3 197.5 364.4 147.1 325.5 125.4C337.4 141.2 382 196.8 363.9 247.7Z" fill="url(#paint18_linear_3688_1531)"/>
<path d="M325.6 125.4C227.1 71.5998 140.1 45.6999 100 43.3999C100 43.3999 110.2 99.7999 186.4 135.7C247 164.2 321.9 209.2 346 276.5C346.4 277.7 351.8 275 352.2 276.2C359.6 267.6 364.9 258.2 368.3 248.5C386.3 197.5 364.4 147.1 325.6 125.4Z" fill="url(#paint19_linear_3688_1531)"/>
<path d="M256.2 321C304.1 313.5 334.4 296.8 352.2 276.1C351.8 274.9 351.4 273.8 351 272.6C334.8 294.8 306.3 313.1 256.2 321Z" fill="url(#paint20_linear_3688_1531)"/>
<path d="M351 272.6C326.9 205.3 251 157.9 190.4 129.4C114.1 93.4998 100 43.2998 100 43.2998C103.4 89.7998 109.1 133.2 121.6 172.1C127 175.8 132.9 179.4 139.3 182.7C194.9 211.2 228.2 245.9 244.7 281.3C250.2 293.1 254.3 306.9 255.5 320.6C255.7 320.7 256 320.8 256.2 320.9C304.1 313.4 334.4 296.7 352.2 276C351.8 274.9 351.4 273.7 351 272.6Z" fill="url(#paint21_linear_3688_1531)"/>
<path d="M576.7 417.1C576.7 417.1 583.6 354.1 567.6 284.4C555.1 260.1 530.8 181.2 524.9 194.9C506.8 236.9 526 282.7 523 307.3C523 319 510.7 378 510.7 378" fill="url(#paint22_linear_3688_1531)"/>
<path d="M492.4 238.8C446.9 191.6 388.4 154.1 330.2 127.4C389.6 163.8 423.3 230.2 431.1 291.9C435.4 326 431.7 358.6 420 383.9C419.3 385.4 418.6 386.8 417.9 388.3C429.9 394.3 441.6 400.8 452.9 408C453.1 408.1 453.3 408.3 453.5 408.4C463.4 406.1 472.8 400.7 480 394.3C496.4 379.5 506.8 359.2 513.7 340C524.4 310 522 278.6 492.4 238.8Z" fill="url(#paint23_linear_3688_1531)"/>
<path d="M453.5 408.4C462.1 413.9 470.5 419.8 478.5 426.2C485 431.4 491.4 437 497.5 443C512.5 429.8 525 414.5 532.3 398.8C545.8 369.8 548.9 338.9 546.6 312.1C532.4 285.6 513.8 261.1 492.4 238.8C536 300.1 500.3 361.9 453.5 408.4Z" fill="url(#paint24_linear_3688_1531)"/>
<path d="M498.2 452.5C544.9 499.8 542.2 551.9 520.7 605.7C536.7 580.3 550.3 553.3 559.5 527.7C589.4 445.5 579.3 373.2 546.5 312C546.3 337.6 542.6 365.6 529.7 394C522.3 410.3 511.9 426.7 497.4 442.9C498.5 444.1 497.2 451.5 498.2 452.5Z" fill="url(#paint25_linear_3688_1531)"/>
<path d="M690.9 263.9C690.9 263.9 669.4 200.8 649.3 180.7C629.2 160.6 611.7 155.2 590.2 165.9C568.7 176.6 556.6 223.6 558 231.7C571.3 209.2 584.8 210.2 584.8 210.2C583.6 234.3 594.3 282.6 690.9 263.9Z" fill="#2B113C"/>
<path d="M595.4 225C596 217.2 598 209.6 601.6 203.5C598 209.7 595.7 217.4 595.4 225Z" fill="url(#paint26_linear_3688_1531)"/>
<path d="M667 242.6C667 242.6 647.7 216 635.8 211.4C623.8 206.7 612.4 214.5 613.4 227.5C614.4 240.5 634.7 252 667 242.6Z" fill="url(#paint27_linear_3688_1531)"/>
<path d="M634.5 145.2C634.5 145.2 585.7 83.1999 579.6 55.8999C578.6 67.6999 598 113.4 608.4 128.9C618.9 144.5 634.5 145.2 634.5 145.2Z" fill="url(#paint28_linear_3688_1531)"/>
<path d="M583.8 57.2999C583.8 55.3999 582.3 53.8999 580.4 53.8999C578.5 53.8999 577 55.3999 577 57.2999C577 59.1999 578.5 60.6999 580.4 60.6999C582.3 60.6999 583.8 59.1999 583.8 57.2999Z" fill="url(#paint29_linear_3688_1531)"/>
<path d="M500.6 446.1C499.6 445.1 498.5 444.1 497.4 443C497.3 443.1 497.3 443.1 497.2 443.2C490.7 450.4 484.3 457.6 478.1 464.7C470.9 472.9 463.9 481.1 457.1 489.2C483 506.3 490.4 549.4 488.2 594.5C487.1 618.7 495.2 639.2 475.2 666.2C491.3 648.3 506.9 627.6 520.6 605.7C549.7 551.5 547.4 493.4 500.6 446.1Z" fill="url(#paint30_linear_3688_1531)"/>
<path d="M389.1 579.3C396 574.1 399.6 566.5 404.3 559.9C410 551.8 416.4 545.3 420.5 535.2C419.1 534.4 415.8 528.7 414.4 528C363.1 503.3 322.7 521 307.3 543.2C297.5 563.3 291 584.5 284.5 607.4C284.5 607.4 300.1 584.5 333.8 575.5C348.2 571.6 367.2 575 389.1 579.3Z" fill="url(#paint31_linear_3688_1531)"/>
<path d="M416.2 532.9C417.7 533.6 419.1 534.4 420.5 535.1C427.7 530.4 434 522 439.8 514.7C446.2 506.7 453.2 498.3 457.1 489.2C454.2 487.3 451.4 485.7 448.5 484.3C401.9 461.7 367 474.6 347.1 487.7C328.9 505.6 316.6 523.9 307.2 543.1C328.4 525 364.9 508.2 416.2 532.9Z" fill="url(#paint32_linear_3688_1531)"/>
<path d="M332 678.1C332.1 677.8 334.3 677.3 334.4 677C337.7 670.4 341 664.8 344.3 658.4C350.3 647 358.6 636.2 360.8 624.6C352.2 614.6 329.4 609.5 316.6 613.5C296.6 619.6 279.2 639.7 273.5 657.1C269.4 681.8 267.4 706 267 729.3C270.5 714.8 281.8 701.3 299.5 690.8C308.5 685.4 317.5 671.2 332 678.1Z" fill="url(#paint33_linear_3688_1531)"/>
<path d="M360.799 624.7C367.999 618.4 371.899 609.4 376.799 601.6C381.399 594.3 386.399 587.5 389.099 579.3C314.099 543.1 284.499 607.3 284.499 607.3C279.799 624 276.099 640.7 273.399 657.1C281.799 641.2 298.199 622.5 321.799 618.4C333.199 616.5 346.199 617.9 360.799 624.7Z" fill="url(#paint34_linear_3688_1531)"/>
<path d="M292.2 779.9C298.5 778.9 305.6 765.5 308.4 757.1C311.4 748 309.2 736.5 309.9 727.2C309.7 727.1 309.6 727.1 309.4 727C297.6 722.1 288.7 718.9 282.1 728.8C275 739.4 267.8 764.7 268 777.2C268.8 789.5 270 801.4 271.5 812.8C280.7 801.1 280.4 781.3 292.2 779.9Z" fill="url(#paint35_linear_3688_1531)"/>
<path d="M309.5 727C309.7 727.1 309.8 727.1 310 727.2C315 719.9 318.8 711.7 322.6 703.3C326.2 695.3 330 687.4 332.1 678C289.5 657.7 272.4 707.2 267 729.2C266.7 745.7 267.1 761.7 268.1 777.1C273.1 751.2 285 716.8 309.5 727Z" fill="url(#paint36_linear_3688_1531)"/>
<path d="M292.2 779.9C279 774.4 273.7 793.4 271.5 812.7C274.4 835.5 278.4 856.1 282.7 873.8C282.7 873.8 285.8 856.8 290.3 823.2C291.9 811.1 291 797.2 292.2 779.9Z" fill="url(#paint37_linear_3688_1531)"/>
<path d="M420.5 535.1C409.6 549.5 399.2 564.1 389.1 579.3C389.2 579.3 389.2 579.4 389.3 579.4C401.9 601.6 409.1 614.9 415.3 639C422.9 668.5 424.2 689.8 396.1 743.2C415.7 724.9 435.4 706.8 454.3 688.1C463.4 675.2 477.8 649.5 478 624.9C478.3 590.5 456.6 542 420.5 535.1Z" fill="url(#paint38_linear_3688_1531)"/>
<path d="M457.2 489.2C444.4 504.5 432.2 519.7 420.5 535.1C482.4 568.9 470.5 654.6 454.3 688C458.7 683.6 463.1 679.2 467.4 674.7C470.1 672 472.7 669.1 475.3 666.2C532.7 588.7 497 515.5 457.2 489.2Z" fill="url(#paint39_linear_3688_1531)"/>
<path d="M361.2 624.8C361.1 624.7 361 624.7 360.9 624.6C351.2 641.3 341.7 658.8 332.5 677.3C332.4 677.6 332.3 677.8 332.1 678.1C334.1 679 331.4 686.8 333.4 688C350.3 698 357.2 715.8 355.7 743.3C354.9 757.5 355.7 762 350.7 787.2C360.6 777.1 370.8 767.1 381.1 757.4C394 736.2 404.3 700.6 399.3 670.2C396 650 381.7 634.4 361.2 624.8Z" fill="url(#paint40_linear_3688_1531)"/>
<path d="M389.399 579.4C389.299 579.4 389.299 579.3 389.199 579.3C379.499 593.9 369.999 609 360.899 624.7C360.999 624.8 361.099 624.8 361.199 624.9C412.699 648.9 396.199 725.9 381.099 757.4C386.099 752.7 391.099 747.9 396.199 743.2C429.099 701.7 437.599 664.9 432.299 636.2C427.199 609.2 409.999 589.4 389.399 579.4Z" fill="url(#paint41_linear_3688_1531)"/>
<path d="M309.9 727.3C302.2 746.8 296.4 764.3 292.2 780C305.9 795.4 298.7 827.5 301.2 844.3C306.7 836.8 312.5 829.5 318.5 822.4C340.4 794.8 346.9 734.2 309.9 727.3Z" fill="url(#paint42_linear_3688_1531)"/>
<path d="M338.099 681.4C335.999 680.2 333.999 679.1 331.999 678.2C323.199 695.7 315.999 712.1 309.899 727.3C344.399 742.3 330.799 794.5 318.499 822.4C328.699 810.3 339.499 798.6 350.599 787.2C362.499 768.5 367.799 752 368.599 737.8C370.299 710.4 354.999 691.4 338.099 681.4Z" fill="url(#paint43_linear_3688_1531)"/>
<path d="M292.2 779.9C275.4 842.2 282.6 873.9 282.6 873.9C287.1 863.8 293.4 854.9 299.9 846.1C300.3 845.5 300.8 844.9 301.2 844.3C308.5 822.5 313.7 788.9 292.2 779.9Z" fill="url(#paint44_linear_3688_1531)"/>
<path d="M351.8 359.9C349.5 366.9 346.7 373.6 343.5 380.1C340.5 386 337.1 391.7 333.3 397.1C358.7 436.2 355.7 471.1 331.2 500C357.7 478.1 383.1 450.1 404.1 414.4C404.1 414.4 404.1 414.3 404.2 414.3C404.9 413.1 405.6 411.9 406.3 410.7C406.4 410.5 406.5 410.3 406.6 410.1C407.2 409.1 407.8 408 408.4 407C408.6 406.6 408.8 406.3 409 405.9C409.5 405.1 409.9 404.2 410.4 403.4C410.7 402.8 411 402.2 411.4 401.6C411.7 401 412.1 400.3 412.4 399.6C412.8 398.8 413.2 398 413.7 397.2C414 396.7 414.2 396.2 414.5 395.7C415 394.7 415.5 393.8 416 392.8C416.7 391.3 417.5 389.8 418.2 388.3C404.5 381.5 390.4 375.3 376.1 369.4C367.9 366.2 359.8 363 351.8 359.9Z" fill="url(#paint45_linear_3688_1531)"/>
<path d="M581 258.2C592.9 300.4 688 301.3 701.1 296.6C701.2 296.6 701.3 296.5 701.5 296.4C701.5 296.4 701.6 296.4 701.7 296.4C701.8 296.4 701.8 296.3 701.9 296.3H702C702.5 296.1 702.8 295.6 702.9 295.1C702.9 295 703 294.9 703 294.8C704.3 288.4 690.7 263.7 697.5 262.4C704.6 261.1 688.4 251.9 695.1 249.3C697.7 248.3 692.6 243.5 693.3 241.6C696 234.6 678.7 232.4 675.9 226.6C678.6 232.4 686.3 244 683.6 250.9C682.8 252.8 681.3 254.3 678.7 255.3C671.9 257.9 664 258.6 656.9 260C649 261.5 640.9 261.8 632.8 261.3C620.9 260.6 608.1 255.9 601 245.9C596.7 239.9 595 232.5 595.3 225C594.8 232.9 579 251.1 581 258.2Z" fill="url(#paint46_linear_3688_1531)"/>
<path d="M702.1 296C702 296 702 296.1 701.9 296.1C701.9 296.1 702 296.1 702.1 296Z" fill="url(#paint47_linear_3688_1531)"/>
<path d="M702.1 296C702 296 702 296.1 701.9 296.1C701.9 296.1 702 296.1 702.1 296Z" fill="url(#paint48_linear_3688_1531)"/>
<path d="M702.9 295.1C702.9 295.2 702.8 295.3 702.8 295.4C702.8 295.3 702.8 295.2 702.9 295.1Z" fill="url(#paint49_linear_3688_1531)"/>
<path d="M702.9 295.1C702.9 295.2 702.8 295.3 702.8 295.4C702.8 295.3 702.8 295.2 702.9 295.1Z" fill="url(#paint50_linear_3688_1531)"/>
<path d="M702.9 295.1C702.9 295 703 294.9 703 294.8C702.9 294.8 702.9 295 702.9 295.1Z" fill="url(#paint51_linear_3688_1531)"/>
<path d="M702.9 295.1C702.9 295 703 294.9 703 294.8C702.9 294.8 702.9 295 702.9 295.1Z" fill="url(#paint52_linear_3688_1531)"/>
<path d="M702.701 295.4C702.701 295.5 702.601 295.5 702.601 295.6C702.601 295.6 702.701 295.5 702.701 295.4Z" fill="url(#paint53_linear_3688_1531)"/>
<path d="M702.701 295.4C702.701 295.5 702.601 295.5 702.601 295.6C702.601 295.6 702.701 295.5 702.701 295.4Z" fill="url(#paint54_linear_3688_1531)"/>
<path d="M702.5 295.7C702.5 295.8 702.4 295.8 702.3 295.9C702.4 295.8 702.5 295.7 702.5 295.7Z" fill="url(#paint55_linear_3688_1531)"/>
<path d="M702.5 295.7C702.5 295.8 702.4 295.8 702.3 295.9C702.4 295.8 702.5 295.7 702.5 295.7Z" fill="url(#paint56_linear_3688_1531)"/>
<path d="M702.301 295.9C702.201 295.9 702.201 296 702.101 296C702.201 296 702.301 295.9 702.301 295.9Z" fill="url(#paint57_linear_3688_1531)"/>
<path d="M702.301 295.9C702.201 295.9 702.201 296 702.101 296C702.201 296 702.301 295.9 702.301 295.9Z" fill="url(#paint58_linear_3688_1531)"/>
<path d="M571.4 209.1C568.7 212.7 566.5 216.7 565.1 220.5C566.4 216.7 568.6 212.8 571.4 209.1Z" fill="url(#paint59_linear_3688_1531)"/>
<path d="M703 294.7C703 294.8 702.9 294.9 702.9 295C702.9 295.1 702.8 295.2 702.8 295.3C702.8 295.4 702.7 295.4 702.7 295.5C702.7 295.6 702.6 295.6 702.5 295.7C702.5 295.7 702.5 295.7 702.4 295.7C702.3 295.7 702.3 295.8 702.2 295.8C702.2 295.8 702.2 295.8 702.1 295.8C702 295.8 702 295.9 701.9 295.9H701.8C701.7 295.9 701.6 295.9 701.6 295.9H701.5C701.4 295.9 701.3 295.9 701.1 295.9C689.2 295.2 609.6 290 597.7 247.8C595.7 240.7 594.9 232.6 595.5 224.7C595.8 217.1 598.1 209.4 601.7 203.2C602.4 202 609.1 193.8 610.7 195.3C599 184.7 581.5 195.1 571.4 208.7C571.4 208.7 571.4 208.7 571.4 208.8C568.7 212.5 566.5 216.4 565.1 220.2C564.9 220.7 564.7 221.3 564.6 221.8C564.4 228.8 552 253.7 570.3 293.3C585.6 299.1 602.6 301.4 619.1 302.2C628.5 302.7 701.6 304.6 703.7 294.7C703.4 295.3 703.2 295.2 703 294.7Z" fill="url(#paint60_linear_3688_1531)"/>
<path d="M650 164.9C619.4 139.6 591.8 145.9 555.5 150.7C545.2 158.9 536.1 170 528.9 184.1C516.1 209 517.6 244 533.8 266.7C542.2 278.5 553.3 286.5 565.7 291.9C567.2 292.5 568.7 293.1 570.2 293.7C561.5 253.6 564.3 229.2 564.5 222.2C564.8 215.1 565.9 208.6 568.1 202.8C575.6 183.5 590.2 171.5 610.7 170.5C626.8 167.7 641.8 179.6 654.9 197.2C655.6 198.1 656.4 199 657.1 199.9C660.9 204.8 665.5 210.2 668.4 216C688.6 250.8 702.9 288.3 702.9 294.9C703.2 295.4 703.4 295.5 703.5 295.3C703.5 295.2 703.3 295 703.3 294.9C693.1 241.4 677.9 188 650 164.9Z" fill="url(#paint61_linear_3688_1531)"/>
<path d="M626.801 161.9C626.801 161.9 545.001 113.6 531.401 40.1001C531.101 43.1001 529.501 43.9001 530.501 49.4001C535.701 76.9001 559.501 133.3 598.501 156.1C623.601 170.6 626.801 161.9 626.801 161.9Z" fill="url(#paint62_linear_3688_1531)"/>
<path d="M535.3 44.5999C535.3 41.9999 533.2 39.8999 530.6 39.8999C528 39.8999 525.9 41.9999 525.9 44.5999C525.9 47.1999 528 49.2999 530.6 49.2999C533.2 49.2999 535.3 47.1999 535.3 44.5999Z" fill="url(#paint63_linear_3688_1531)"/>
<path d="M652.4 153.4C611.7 119.8 558.4 130.4 530.6 180.7C540.4 166.7 558 159.9 582.7 159.7C622.9 159.4 641.8 179.5 654.9 197.1C655.6 198 656.4 198.9 657.1 199.8C660.9 204.7 664.3 210.1 667.2 215.9C686.7 249.5 701 288.8 702.9 294.7C703.1 295.2 703.4 295.3 703.5 295.1C703.5 295 703.5 295 703.5 294.9C709 247 680.3 176.5 652.4 153.4Z" fill="url(#paint64_linear_3688_1531)"/>
</g>
</g>
<defs>
<linearGradient id="paint0_linear_3688_1531" x1="347.319" y1="430.436" x2="469.65" y2="430.436" gradientUnits="userSpaceOnUse">
<stop stop-color="#3E1D63"/>
<stop offset="1" stop-color="#3F2059"/>
</linearGradient>
<linearGradient id="paint1_linear_3688_1531" x1="347.184" y1="448.948" x2="497.49" y2="448.948" gradientUnits="userSpaceOnUse">
<stop stop-color="#4A2875"/>
<stop offset="1" stop-color="#3F2059"/>
</linearGradient>
<linearGradient id="paint2_linear_3688_1531" x1="191.041" y1="63.5897" x2="342.584" y2="236.527" gradientUnits="userSpaceOnUse">
<stop offset="0.1849" stop-color="#524B9E"/>
<stop offset="0.6854" stop-color="#524B9E"/>
</linearGradient>
<linearGradient id="paint3_linear_3688_1531" x1="36.7086" y1="277.525" x2="395.063" y2="323.879" gradientUnits="userSpaceOnUse">
<stop stop-color="#6C6AAF"/>
<stop offset="1" stop-color="#524B9E"/>
</linearGradient>
<linearGradient id="paint4_linear_3688_1531" x1="190.477" y1="621.662" x2="393.65" y2="422.046" gradientUnits="userSpaceOnUse">
<stop stop-color="#D2D9D6"/>
<stop offset="1" stop-color="#524B9E"/>
</linearGradient>
<linearGradient id="paint5_linear_3688_1531" x1="188.819" y1="619.607" x2="391.828" y2="420.16" gradientUnits="userSpaceOnUse">
<stop stop-color="#D2D9D6"/>
<stop offset="1" stop-color="#524B9E"/>
</linearGradient>
<linearGradient id="paint6_linear_3688_1531" x1="190.026" y1="620.316" x2="392.791" y2="421.105" gradientUnits="userSpaceOnUse">
<stop stop-color="#D2D9D6"/>
<stop offset="1" stop-color="#524B9E"/>
</linearGradient>
<linearGradient id="paint7_linear_3688_1531" x1="187.783" y1="618.585" x2="390.801" y2="419.117" gradientUnits="userSpaceOnUse">
<stop stop-color="#D2D9D6"/>
<stop offset="1" stop-color="#524B9E"/>
</linearGradient>
<linearGradient id="paint8_linear_3688_1531" x1="135.744" y1="534.784" x2="361.245" y2="442.088" gradientUnits="userSpaceOnUse">
<stop stop-color="#5EA4D2"/>
<stop offset="1" stop-color="#5858A6"/>
</linearGradient>
<linearGradient id="paint9_linear_3688_1531" x1="175.84" y1="360.845" x2="259.61" y2="447.503" gradientUnits="userSpaceOnUse">
<stop stop-color="#AEBAD5"/>
<stop offset="1" stop-color="#524B9E"/>
</linearGradient>
<linearGradient id="paint10_linear_3688_1531" x1="118.607" y1="522.727" x2="299.871" y2="360.797" gradientUnits="userSpaceOnUse">
<stop stop-color="#86BCDE"/>
<stop offset="1" stop-color="#625EA8"/>
</linearGradient>
<linearGradient id="paint11_linear_3688_1531" x1="380.207" y1="388.889" x2="296.31" y2="351.401" gradientUnits="userSpaceOnUse">
<stop offset="0.1397" stop-color="#4D3593"/>
<stop offset="1" stop-color="#4D3170"/>
</linearGradient>
<linearGradient id="paint12_linear_3688_1531" x1="377.699" y1="392.688" x2="291.918" y2="354.366" gradientUnits="userSpaceOnUse">
<stop offset="0.1397" stop-color="#4D3593"/>
<stop offset="1" stop-color="#4D3170"/>
</linearGradient>
<linearGradient id="paint13_linear_3688_1531" x1="381.71" y1="384.565" x2="296.841" y2="346.646" gradientUnits="userSpaceOnUse">
<stop offset="0.1397" stop-color="#4D3593"/>
<stop offset="1" stop-color="#4D3170"/>
</linearGradient>
<linearGradient id="paint14_linear_3688_1531" x1="376.908" y1="397.301" x2="294.081" y2="360.294" gradientUnits="userSpaceOnUse">
<stop offset="0.1397" stop-color="#4D3593"/>
<stop offset="1" stop-color="#4D3170"/>
</linearGradient>
<linearGradient id="paint15_linear_3688_1531" x1="384.316" y1="380.597" x2="301.327" y2="343.517" gradientUnits="userSpaceOnUse">
<stop offset="0.1397" stop-color="#4D3593"/>
<stop offset="1" stop-color="#4D3170"/>
</linearGradient>
<linearGradient id="paint16_linear_3688_1531" x1="275.891" y1="443.293" x2="299.658" y2="362.485" gradientUnits="userSpaceOnUse">
<stop stop-color="#524B9E"/>
<stop offset="1" stop-color="#524B9E"/>
</linearGradient>
<linearGradient id="paint17_linear_3688_1531" x1="103.191" y1="178.364" x2="472.25" y2="460.061" gradientUnits="userSpaceOnUse">
<stop stop-color="#AEBAD5"/>
<stop offset="1" stop-color="#524B9E"/>
</linearGradient>
<linearGradient id="paint18_linear_3688_1531" x1="319.631" y1="363.322" x2="365.069" y2="79.3337" gradientUnits="userSpaceOnUse">
<stop stop-color="#4670A9"/>
<stop offset="1" stop-color="#4D3593"/>
</linearGradient>
<linearGradient id="paint19_linear_3688_1531" x1="146.573" y1="86.8601" x2="397.961" y2="238.407" gradientUnits="userSpaceOnUse">
<stop stop-color="#AEBAD5"/>
<stop offset="1" stop-color="#524B9E"/>
</linearGradient>
<linearGradient id="paint20_linear_3688_1531" x1="294.432" y1="359.299" x2="339.876" y2="75.2768" gradientUnits="userSpaceOnUse">
<stop stop-color="#4670A9"/>
<stop offset="1" stop-color="#4D3593"/>
</linearGradient>
<linearGradient id="paint21_linear_3688_1531" x1="123.125" y1="109.854" x2="383.428" y2="363.025" gradientUnits="userSpaceOnUse">
<stop stop-color="#AEBAD5"/>
<stop offset="1" stop-color="#524B9E"/>
</linearGradient>
<linearGradient id="paint22_linear_3688_1531" x1="536.364" y1="300.097" x2="621.93" y2="328.619" gradientUnits="userSpaceOnUse">
<stop stop-color="#642A79"/>
<stop offset="1" stop-color="#EC2227"/>
</linearGradient>
<linearGradient id="paint23_linear_3688_1531" x1="402.865" y1="457.162" x2="421.798" y2="252.684" gradientUnits="userSpaceOnUse">
<stop stop-color="#4A2875"/>
<stop offset="1" stop-color="#523F92"/>
</linearGradient>
<linearGradient id="paint24_linear_3688_1531" x1="466.571" y1="447.968" x2="525.996" y2="281.578" gradientUnits="userSpaceOnUse">
<stop stop-color="#61217E"/>
<stop offset="1" stop-color="#45245E"/>
</linearGradient>
<linearGradient id="paint25_linear_3688_1531" x1="595.376" y1="556.758" x2="469.399" y2="357.096" gradientUnits="userSpaceOnUse">
<stop stop-color="#EF4B4C"/>
<stop offset="1" stop-color="#45245E"/>
</linearGradient>
<linearGradient id="paint26_linear_3688_1531" x1="632.892" y1="355.301" x2="574.956" y2="117.315" gradientUnits="userSpaceOnUse">
<stop stop-color="#F8DF26"/>
<stop offset="1" stop-color="#BA203C"/>
</linearGradient>
<linearGradient id="paint27_linear_3688_1531" x1="628.507" y1="265.514" x2="645.145" y2="218.569" gradientUnits="userSpaceOnUse">
<stop stop-color="#FBED21"/>
<stop offset="1" stop-color="#BA203C"/>
</linearGradient>
<linearGradient id="paint28_linear_3688_1531" x1="701.992" y1="284.219" x2="639.4" y2="170.128" gradientUnits="userSpaceOnUse">
<stop stop-color="#F9EF79"/>
<stop offset="1" stop-color="#BA203C"/>
</linearGradient>
<linearGradient id="paint29_linear_3688_1531" x1="578.581" y1="53.134" x2="581.739" y2="60.2915" gradientUnits="userSpaceOnUse">
<stop stop-color="#FBED21"/>
<stop offset="1" stop-color="#BA203C"/>
</linearGradient>
<linearGradient id="paint30_linear_3688_1531" x1="448.99" y1="468.602" x2="522.087" y2="616.579" gradientUnits="userSpaceOnUse">
<stop stop-color="#522768"/>
<stop offset="0.184" stop-color="#572668"/>
<stop offset="0.3913" stop-color="#642467"/>
<stop offset="0.61" stop-color="#7B2066"/>
<stop offset="0.835" stop-color="#9A1B64"/>
<stop offset="1" stop-color="#B61662"/>
</linearGradient>
<linearGradient id="paint31_linear_3688_1531" x1="284.544" y1="566" x2="418.837" y2="550.55" gradientUnits="userSpaceOnUse">
<stop stop-color="#4C61AB"/>
<stop offset="1" stop-color="#4D3593"/>
</linearGradient>
<linearGradient id="paint32_linear_3688_1531" x1="346.42" y1="506.494" x2="444.481" y2="517.191" gradientUnits="userSpaceOnUse">
<stop stop-color="#4B3C96"/>
<stop offset="1" stop-color="#573584"/>
</linearGradient>
<linearGradient id="paint33_linear_3688_1531" x1="326.84" y1="665.473" x2="244.833" y2="679.141" gradientUnits="userSpaceOnUse">
<stop stop-color="#429695"/>
<stop offset="1" stop-color="#70C284"/>
</linearGradient>
<linearGradient id="paint34_linear_3688_1531" x1="266.911" y1="612.668" x2="389.145" y2="612.668" gradientUnits="userSpaceOnUse">
<stop stop-color="#45ADD1"/>
<stop offset="1" stop-color="#534FA0"/>
</linearGradient>
<linearGradient id="paint35_linear_3688_1531" x1="239.892" y1="790.961" x2="361.109" y2="721.44" gradientUnits="userSpaceOnUse">
<stop stop-color="#8CC976"/>
<stop offset="1" stop-color="#A3D290"/>
</linearGradient>
<linearGradient id="paint36_linear_3688_1531" x1="346.687" y1="712.074" x2="226.648" y2="739.409" gradientUnits="userSpaceOnUse">
<stop stop-color="#5AB947"/>
<stop offset="1" stop-color="#A3D290"/>
</linearGradient>
<linearGradient id="paint37_linear_3688_1531" x1="223.505" y1="846.14" x2="334.039" y2="810.483" gradientUnits="userSpaceOnUse">
<stop stop-color="#7EC35C"/>
<stop offset="1" stop-color="#CEE4B8"/>
</linearGradient>
<linearGradient id="paint38_linear_3688_1531" x1="460.978" y1="733.856" x2="393.234" y2="563.9" gradientUnits="userSpaceOnUse">
<stop stop-color="#EE8028"/>
<stop offset="1" stop-color="#A0225C"/>
</linearGradient>
<linearGradient id="paint39_linear_3688_1531" x1="477.389" y1="677.742" x2="461.343" y2="542.243" gradientUnits="userSpaceOnUse">
<stop stop-color="#EE435C"/>
<stop offset="1" stop-color="#792A6D"/>
</linearGradient>
<linearGradient id="paint40_linear_3688_1531" x1="386.357" y1="753.664" x2="315.049" y2="584.902" gradientUnits="userSpaceOnUse">
<stop stop-color="#FBCD1C"/>
<stop offset="0.0848944" stop-color="#F5BD1D"/>
<stop offset="0.719" stop-color="#CA4D23"/>
<stop offset="1" stop-color="#B92026"/>
</linearGradient>
<linearGradient id="paint41_linear_3688_1531" x1="440.33" y1="752.53" x2="348.527" y2="588.532" gradientUnits="userSpaceOnUse">
<stop stop-color="#FAB51F"/>
<stop offset="1" stop-color="#BA203C"/>
</linearGradient>
<linearGradient id="paint42_linear_3688_1531" x1="327.012" y1="810.023" x2="286.006" y2="747.622" gradientUnits="userSpaceOnUse">
<stop stop-color="#FBD907"/>
<stop offset="1" stop-color="#FAD00D"/>
</linearGradient>
<linearGradient id="paint43_linear_3688_1531" x1="353.723" y1="791.586" x2="310.935" y2="704.226" gradientUnits="userSpaceOnUse">
<stop stop-color="#FBED21"/>
<stop offset="1" stop-color="#F8A01B"/>
</linearGradient>
<linearGradient id="paint44_linear_3688_1531" x1="369.767" y1="891.531" x2="219.311" y2="772.42" gradientUnits="userSpaceOnUse">
<stop stop-color="#F7F090"/>
<stop offset="1" stop-color="#FBD907"/>
</linearGradient>
<linearGradient id="paint45_linear_3688_1531" x1="295.323" y1="550.356" x2="404.076" y2="336.417" gradientUnits="userSpaceOnUse">
<stop stop-color="#524B9E"/>
<stop offset="1" stop-color="#443C84"/>
</linearGradient>
<linearGradient id="paint46_linear_3688_1531" x1="721.089" y1="286.818" x2="615.913" y2="245.817" gradientUnits="userSpaceOnUse">
<stop stop-color="#FADA61"/>
<stop offset="1" stop-color="#F19A21"/>
</linearGradient>
<linearGradient id="paint47_linear_3688_1531" x1="684.906" y1="288.355" x2="558.226" y2="230.844" gradientUnits="userSpaceOnUse">
<stop stop-color="#FBD907"/>
<stop offset="1" stop-color="#FAD00D"/>
</linearGradient>
<linearGradient id="paint48_linear_3688_1531" x1="712.78" y1="340.489" x2="651.896" y2="90.2409" gradientUnits="userSpaceOnUse">
<stop stop-color="#F8DF26"/>
<stop offset="1" stop-color="#BA203C"/>
</linearGradient>
<linearGradient id="paint49_linear_3688_1531" x1="682.017" y1="285.801" x2="602.352" y2="249.656" gradientUnits="userSpaceOnUse">
<stop stop-color="#FBD907"/>
<stop offset="1" stop-color="#FAD00D"/>
</linearGradient>
<linearGradient id="paint50_linear_3688_1531" x1="712.595" y1="335.481" x2="655.217" y2="99.7866" gradientUnits="userSpaceOnUse">
<stop stop-color="#F8DF26"/>
<stop offset="1" stop-color="#BA203C"/>
</linearGradient>
<linearGradient id="paint51_linear_3688_1531" x1="685.104" y1="286.806" x2="555.278" y2="227.927" gradientUnits="userSpaceOnUse">
<stop stop-color="#FBD907"/>
<stop offset="1" stop-color="#FAD00D"/>
</linearGradient>
<linearGradient id="paint52_linear_3688_1531" x1="712.923" y1="336.02" x2="654.694" y2="96.9269" gradientUnits="userSpaceOnUse">
<stop stop-color="#F8DF26"/>
<stop offset="1" stop-color="#BA203C"/>
</linearGradient>
<linearGradient id="paint53_linear_3688_1531" x1="685.103" y1="287.553" x2="557.324" y2="229.615" gradientUnits="userSpaceOnUse">
<stop stop-color="#FBD907"/>
<stop offset="1" stop-color="#FAD00D"/>
</linearGradient>
<linearGradient id="paint54_linear_3688_1531" x1="712.426" y1="335.711" x2="654.762" y2="98.9898" gradientUnits="userSpaceOnUse">
<stop stop-color="#F8DF26"/>
<stop offset="1" stop-color="#BA203C"/>
</linearGradient>
<linearGradient id="paint55_linear_3688_1531" x1="685.225" y1="287.938" x2="559.28" y2="230.797" gradientUnits="userSpaceOnUse">
<stop stop-color="#FBD907"/>
<stop offset="1" stop-color="#FAD00D"/>
</linearGradient>
<linearGradient id="paint56_linear_3688_1531" x1="712.543" y1="337.185" x2="652.867" y2="92.0543" gradientUnits="userSpaceOnUse">
<stop stop-color="#F8DF26"/>
<stop offset="1" stop-color="#BA203C"/>
</linearGradient>
<linearGradient id="paint57_linear_3688_1531" x1="684.706" y1="287.988" x2="555.722" y2="229.538" gradientUnits="userSpaceOnUse">
<stop stop-color="#FBD907"/>
<stop offset="1" stop-color="#FAD00D"/>
</linearGradient>
<linearGradient id="paint58_linear_3688_1531" x1="712.085" y1="336.473" x2="653.461" y2="95.9547" gradientUnits="userSpaceOnUse">
<stop stop-color="#F8DF26"/>
<stop offset="1" stop-color="#BA203C"/>
</linearGradient>
<linearGradient id="paint59_linear_3688_1531" x1="604.158" y1="362.31" x2="546.216" y2="124.303" gradientUnits="userSpaceOnUse">
<stop stop-color="#F8DF26"/>
<stop offset="1" stop-color="#BA203C"/>
</linearGradient>
<linearGradient id="paint60_linear_3688_1531" x1="639.274" y1="269.651" x2="568.862" y2="233.108" gradientUnits="userSpaceOnUse">
<stop stop-color="#F2B92D"/>
<stop offset="1" stop-color="#BA203C"/>
</linearGradient>
<linearGradient id="paint61_linear_3688_1531" x1="559.151" y1="450.62" x2="626.878" y2="196.231" gradientUnits="userSpaceOnUse">
<stop stop-color="#FBED21"/>
<stop offset="1" stop-color="#BA203C"/>
</linearGradient>
<linearGradient id="paint62_linear_3688_1531" x1="751.862" y1="198.648" x2="602.51" y2="118.228" gradientUnits="userSpaceOnUse">
<stop stop-color="#F9EF79"/>
<stop offset="1" stop-color="#BA203C"/>
</linearGradient>
<linearGradient id="paint63_linear_3688_1531" x1="527.936" y1="38.6246" x2="532.394" y2="48.7285" gradientUnits="userSpaceOnUse">
<stop stop-color="#F9EF79"/>
<stop offset="1" stop-color="#BA203C"/>
</linearGradient>
<linearGradient id="paint64_linear_3688_1531" x1="662.651" y1="305.849" x2="580.648" y2="134.117" gradientUnits="userSpaceOnUse">
<stop stop-color="#F9EF79"/>
<stop offset="1" stop-color="#BA203C"/>
</linearGradient>
</defs>
</svg>
