<svg width="100%" height="100%" viewBox="0 0 65 64" xmlns="http://www.w3.org/2000/svg">
    <path fill-rule="evenodd" clip-rule="evenodd" d="M27.2938 56.0387C46.1362 56.0387 54.5875 47.5873 54.5875 28.7449C54.5875 9.90254 46.1362 1.45117 27.2938 1.45117C8.45136 1.45117 0 9.90254 0 28.7449C0 47.5873 8.45136 56.0387 27.2938 56.0387ZM22.1694 13.0242H29.7624V25.5366H25.0547V17.0521H20.8373L22.1694 13.0242ZM27.2962 44.4646C32.0787 44.4646 35.9556 40.5876 35.9556 35.8052C35.9556 31.0227 32.0787 27.1458 27.2962 27.1458C22.5137 27.1458 18.6367 31.0227 18.6367 35.8052C18.6367 40.5876 22.5137 44.4646 27.2962 44.4646ZM27.2961 40.5334C29.9075 40.5334 32.0243 38.4165 32.0243 35.8052C32.0243 33.1939 29.9075 31.077 27.2961 31.077C24.6849 31.077 22.568 33.1939 22.568 35.8052C22.568 38.4165 24.6849 40.5334 27.2961 40.5334Z" fill="#16D629"></path>
</svg>
