<?xml version="1.0" encoding="UTF-8"?>
<svg width="50px" height="50px" viewBox="0 0 50 50" version="1.1" xmlns="http://www.w3.org/2000/svg" xmlns:xlink="http://www.w3.org/1999/xlink">
    <!-- Generator: Sketch 55.1 (78136) - https://sketchapp.com -->
    <title>Artboard</title>
    <desc>Created with Sketch.</desc>
    <g id="Artboard" stroke="none" stroke-width="1" fill="none" fill-rule="evenodd">
        <path d="M43.8643746,5.93411569 L41.78077,18.4191025 L34.3753302,9.70565756 L43.8643746,5.93411569 Z M41.8263251,23.7887193 L43.6800265,30.6312887 L29.5043612,34.5343366 L41.8263251,23.7887193 Z M10.967772,20.3495599 L18.5677776,10.4240465 L31.7663539,10.4240465 L40.202527,20.3495599 L10.967772,20.3495599 Z M39.225012,22.8026368 L25.483183,34.7854323 L11.48548,22.8026368 L39.225012,22.8026368 Z M16.0226632,9.71289255 L9.23115081,18.5821018 L7.14584299,5.98263248 L16.0226632,9.71289255 Z M21.412618,34.5300807 L7.10199107,30.6346934 L9.0629808,23.9572512 L21.412618,34.5300807 Z M24.0548027,37.7909196 L21.3534388,40.7627857 C19.0641987,38.5888931 16.5471838,36.6588613 13.8602956,35.0160998 L24.0548027,37.7909196 Z M37.1584371,34.9705622 C34.4715493,36.640561 31.9604944,38.5957025 29.6853036,40.7900232 L26.9268905,37.787515 L37.1584371,34.9705622 Z M47,2.0480912 L32.0984363,7.9713952 L18.209299,7.9713952 L4,2 L7.22758638,21.4994929 L4.1281498,32.0544478 L12.2147843,36.8874008 C16.0439506,39.175776 19.4737672,42.0391177 22.4088652,45.3969901 L25.5576887,49 L28.8623349,45.2110091 C31.6978089,41.9603843 34.9999007,39.1693922 38.6770757,36.9159151 L46.6074612,32.0544478 L43.7515518,21.5139629 L47,2.0480912 L47,2.0480912 Z" id="Fill-15" fill="#FFFFFF" fill-rule="nonzero"></path>
    </g>
</svg>