<?xml version="1.0" encoding="UTF-8"?><svg id="Layer_2" xmlns="http://www.w3.org/2000/svg" viewBox="0 0 693.65 107.54"><defs><style>.cls-1{fill:#fff;}</style></defs><g id="Layer_1-2"><path class="cls-1" d="m28.88,0C13.03,0,.13,12.83,0,28.65c0,.13.1.23.23.23h14.05c.12,0,.22-.1.22-.22.12-7.83,6.53-14.17,14.38-14.17h57.89c.12,0,.23-.1.23-.23V.23c0-.12-.1-.23-.23-.23H28.88Z"/><path class="cls-1" d="m14.73,43.38h57.54c.12,0,.23.1.23.23v14.05c0,.12-.1.23-.23.23H14.73c-.12,0-.23-.1-.23-.23v-14.05c0-.12-.1-.23-.23-.23H.23c-.12,0-.23.1-.23.23v28.55c0,.12.1.23.23.23h72.04c.13,0,.23.11.23.24-.13,7.82-6.53,14.15-14.38,14.15H.23c-.12,0-.23.1-.23.23v14.05c0,.12.1.23.23.23h57.89c15.85,0,28.76-12.83,28.88-28.65,0-.13-.1-.23-.23-.23h-14.04c-.12,0-.23-.1-.23-.23v-14.05c0-.12.1-.23.23-.23h14.05c.12,0,.23-.1.23-.23v-28.55c0-.12-.1-.23-.23-.23H14.73c-.12,0-.23.1-.23.23v14.05c0,.12.1.23.23.23Z"/><path class="cls-1" d="m165.58,42.1c-9.6-2.27-18.27-2.58-18.27-9.5,0-5.16,5.99-7.84,13.11-7.84,8.05,0,13.21,3.1,14.66,10.01h14.86c-1.96-16.31-14.24-21.78-29.11-21.78-17.34,0-28.59,7.43-28.59,20.75,0,10.73,6.5,15.38,19.92,18.58,12.9,3.1,24.88,4.03,24.88,13.52,0,4.95-4.13,10.12-14.45,10.12-9.7,0-15.79-4.54-17.03-13.21h-15.79c1.14,15.59,13.32,24.88,32.72,24.88,20.85,0,29.73-9.91,29.73-23.22s-7.02-17.75-26.63-22.3Z"/><polygon class="cls-1" points="248.77 72.34 240.31 35.8 224.62 35.8 216.05 72.34 207.9 35.8 193.55 35.8 207.59 86.38 223.49 86.38 232.47 49.94 241.34 86.38 257.24 86.38 271.59 35.8 256.93 35.8 248.77 72.34"/><path class="cls-1" d="m321.54,56.44c0-19.51-14.86-21.68-23.22-21.68-10.12,0-21.16,3.2-23.22,16.72h13.93c.72-5.57,6.5-6.4,9.7-6.4,4.85,0,9.19,1.86,9.19,8.05v1.03l-8.36.41c-15.17.72-26.32,4.34-26.32,16.62,0,10.32,8.05,16.21,18.37,16.21,9.5,0,13.93-4.75,16.21-7.53.1,2.27.21,4.64.52,6.5h14.24c-.83-4.23-1.03-9.7-1.03-14.45v-15.48Zm-13.52,8.16c0,9.5-7.64,12.28-12.9,12.28s-8.15-2.48-8.15-5.99c0-5.47,6.92-6.81,15.38-7.23l5.68-.31v1.24Z"/><path class="cls-1" d="m358.6,34.67c-7.74,0-12.8,3.51-15.17,7.53v-6.4h-13.94v71.74h13.94v-27.46c2.68,4.03,7.43,7.43,15.48,7.43,12.9,0,21.78-10.74,21.78-26.42s-8.98-26.42-22.09-26.42Zm-3.82,42.53c-7.84,0-11.87-6.92-11.87-15.59s4.03-15.59,11.87-15.59,11.97,6.92,11.97,15.59-4.13,15.59-11.97,15.59Z"/><polygon class="cls-1" points="450.56 14.64 433.12 14.64 402.46 48.81 402.46 14.64 388.11 14.64 388.11 86.38 402.46 86.38 402.26 66.66 411.96 56.34 433.33 86.38 451.08 86.38 422.08 45.92 450.56 14.64"/><rect class="cls-1" x="454.07" y="35.75" width="13.94" height="50.63"/><path class="cls-1" d="m495.05,70.07v-24.1h-6.88v-10.22h6.88v-14.91h-13.94v14.91s-8.46,0-8.46,0v10.17h8.46v27.45c0,8.36,5.37,13.01,12.39,13.01h14.97v-10.94h-8.36c-4.03,0-5.06-1.14-5.06-5.37Z"/><rect class="cls-1" x="454.07" y="14.64" width="13.94" height="10.94"/><path class="cls-1" d="m569.87,42.03c-2.68-4.02-7.43-7.43-15.47-7.43-12.89,0-21.76,10.73-21.76,26.41s8.97,26.41,22.07,26.41c7.74,0,12.79-3.51,15.16-7.53v6.39h13.93V14.59h-13.93v27.44Zm-11.35,34.04c-7.84,0-11.97-6.91-11.97-15.58s4.13-15.57,11.97-15.57,11.86,6.91,11.86,15.57-4.02,15.58-11.86,15.58Z"/><path class="cls-1" d="m616.19,34.6c-15.27,0-25.89,10.11-25.89,26.41s11.35,26.41,26.61,26.41c10.52,0,21.76-5.16,23.93-17.95h-13.82c-2.06,6.7-8.66,7.12-10.73,7.12-7.12,0-11.14-4.95-11.55-11.24h36.72v-3.61c-.1-17.54-10.31-27.13-25.27-27.13Zm-11.86,21.15c.62-6.19,4.95-10.32,11.86-10.32,6.5,0,10.83,3.71,11.45,10.32h-23.31Z"/><polygon class="cls-1" points="679.01 35.74 667.45 73.6 655.9 35.74 641.46 35.74 658.99 86.28 675.91 86.28 693.65 35.74 679.01 35.74"/><rect class="cls-1" x="516.89" y="75.44" width="10.85" height="10.85"/><rect class="cls-1" x="498.39" y="35.75" width="10.22" height="10.22"/></g></svg>