<?xml version="1.0" encoding="UTF-8"?>
<svg id="Layer_1" data-name="Layer 1" xmlns="http://www.w3.org/2000/svg" viewBox="0 0 102.46 86">
  <defs>
    <style>
      .cls-1 {
        fill: #ea9c2f;
        stroke-width: 0px;
      }
    </style>
  </defs>
  <path class="cls-1" d="m79.6,0h-31l-8.4,10.7h36.2c9.3,0,12.9,8,9.4,13-2,2.8-15,19.2-15,19.2h14.1s4.1-5.3,8.4-10.8c3.7-4.7,9.9-13.2,4.5-22.2C92,0,83.7,0,79.6,0Z"/>
  <path class="cls-1" d="m14.1,62.1c2-2.8,15-19.2,15-19.2h-14.1s-4.1,5.3-8.4,10.8c-3.7,4.7-9.8,13.2-4.5,22.2,5.8,9.9,14.2,9.9,18.2,9.9h31l8.4-10.8H23.5c-9.2,0-12.9-8-9.4-12.9Z"/>
  <path class="cls-1" d="m69.5,26.8c1.5-1.9-.3-5.4-2.8-5.4H31.8l-8.4,10.7h27.9l-21,26.9c-1.7,2.2-.4,5.4,2.7,5.4h35.1l8.4-10.7h-28l21-26.9Z"/>
</svg>